<?xml version="1.0" encoding="UTF-8" standalone="no"?>
<!-- Created with Inkscape (http://www.inkscape.org/) -->
<svg id="svg2" xmlns:rdf="http://www.w3.org/1999/02/22-rdf-syntax-ns#" xmlns="http://www.w3.org/2000/svg" height="208.35" viewBox="0 0 600.00005 208.34917" width="600" version="1.1" xmlns:cc="http://creativecommons.org/ns#" xmlns:dc="http://purl.org/dc/elements/1.1/">
 <defs id="defs4">
  <clipPath id="clipPath6137" clipPathUnits="userSpaceOnUse">
   <rect id="rect6139" stroke-linejoin="round" ry="6.952" height="13.904" width="31.234" stroke="#000" y="188.25" x="839.32" stroke-width=".11226" fill="#ccc"/>
  </clipPath>
  <linearGradient id="linearGradient6149" y2="479.34" gradientUnits="userSpaceOnUse" x2="736.42" gradientTransform="matrix(.99938 .035138 -.035138 .99938 -3.2299 -33.846)" y1="479.34" x1="734.06">
   <stop id="stop6145" stop-color="#fff" offset="0"/>
   <stop id="stop6147" stop-color="#fff" stop-opacity="0" offset="1"/>
  </linearGradient>
 </defs>
 <metadata id="metadata7">
  <rdf:RDF>
   <cc:Work rdf:about="">
    <dc:format>image/svg+xml</dc:format>
    <dc:type rdf:resource="http://purl.org/dc/dcmitype/StillImage"/>
    <dc:title/>
   </cc:Work>
  </rdf:RDF>
 </metadata>
 <g id="layer1" transform="translate(1.6226 -843.59)">
  <g id="g18879" transform="translate(15.897 -452.82)">
   <g id="g4830">
    <text id="text3056" style="word-spacing:0px;letter-spacing:0px" xml:space="preserve" font-size="40px" line-height="125%" y="1078.4438" x="1376.9393" font-family="Sans"><tspan id="tspan3058" y="1078.4438" x="1376.9393"/></text>
    <text id="text3060" style="word-spacing:0px;letter-spacing:0px" xml:space="preserve" font-size="13px" line-height="125%" y="1381.0938" x="1273.4375" font-family="&apos;Arial Hebrew&apos;"><tspan id="tspan3062" y="1381.0938" x="1273.4375"/></text>
    <text id="text3064" style="word-spacing:0px;letter-spacing:0px" xml:space="preserve" font-size="6px" line-height="125%" y="1391.3274" x="1272.1416" font-family="Krungthep"><tspan id="tspan3066" y="1391.3274" x="1272.1416"/></text>
   </g>
   <g id="g13938" transform="matrix(.11236 0 0 .11236 -87.279 1217.5)">
    <path id="path13952" fill="#d6d6d6" d="m1605.3 2556.3c-0.097-0.3057 0.2365-2.972 0.7411-5.925 3.7481-21.936 10.364-39.785 18.253-49.244l1.5637-1.875h191.38v-71.4h-597.73c-328.75 0-597.94-0.082-598.2-0.1821-0.43257-0.166-0.47454-76.469-0.47454-862.65v-862.47h2850.6v862.47c0 786.18-0.042 862.48-0.4745 862.65-0.261 0.1002-269.52 0.1821-598.35 0.1821h-597.88l0.076 35.625 0.076 35.625 95.792 0.15 95.792 0.15 0.6029 0.75c7.0791 8.8056 11.722 19.106 15.836 35.133 1.7106 6.6633 3.9262 18.283 3.9263 20.592l0.0001 0.975h-440.68c-428.73 0-440.68-0.015-440.86-0.5557zm1799.2-1005.8v-781.05h-2716.8v1562.1h2716.8v-781.05z"/>
    <path id="path13950" fill="#a5a5a5" d="m1605.5 2555.9c0-2.3501 2.5763-15.379 4.3733-22.117 3.8277-14.352 9.4292-26.688 14.916-32.85l1.3358-1.5 95.662-0.15 95.662-0.15v-71.4l-598.2-0.1502c-329.01-0.083-598.23-0.1838-598.28-0.225-0.0412-0.041-0.075-388.13-0.075-862.42v-862.35h2850.6v862.32c0 786.04-0.042 862.33-0.4745 862.5-0.261 0.1002-269.52 0.1821-598.35 0.1821h-597.88v71.7h94.912c52.202 0 95.341 0.086 95.865 0.1906 0.7378 0.1476 1.3808 0.74 2.849 2.625 5.4873 7.0454 9.9123 16.992 13.693 30.78 1.8668 6.8082 4.1718 18.119 4.6011 22.579l0.1372 1.425h-881.36v-0.9828zm1799.4-1005.4v-781.35h-2717.4v1562.7h2717.4v-781.35z"/>
    <path id="path13948" fill="#5c5c5c" d="m1605.6 2556.3c0.082-0.2887 0.238-1.2675 0.3474-2.175 0.7917-6.5696 3.9604-20.32 6.4662-28.058 3.5023-10.817 8.4309-20.593 12.685-25.161l1.2856-1.3806h95.572c86.872 0 95.588-0.043 95.754-0.4745 0.1002-0.261 0.1821-16.366 0.1821-35.79 0-27.068-0.084-35.4-0.36-35.676-0.2797-0.2797-133.68-0.36-598.5-0.36h-598.14v-1724.7h2850.6v1724.7l-598.43 0.075-598.42 0.075-0.076 36.075-0.076 36.075h191.1l1.2166 1.0992c0.6692 0.6046 2.1649 2.5172 3.3238 4.2503 6.0336 9.0231 11.126 23.001 14.5 39.8 0.8103 4.0344 1.9609 10.897 1.9609 11.695 0 0.4064-47.016 0.4549-440.57 0.4549-419.45 0-440.56-0.025-440.42-0.525zm1799.5-1005.9 0.075-781.58h-1359c-1238.9 0-1359 0.0419-1359.2 0.47454-0.23813 0.62056-0.23812 1561.7 0.00002 1562.4 0.16603 0.4327 120.14 0.4679 1359.1 0.3995l1358.9-0.075 0.075-781.58z"/>
    <path id="path13946" fill="#4a4a4a" d="m1616 2556.6-10.288-0.079 0.1591-0.971c0.088-0.5341 0.3751-2.3211 0.6392-3.9711 1.3542-8.4609 3.8283-18.682 6.4304-26.565 3.1427-9.5211 7.0623-17.425 11.298-22.781l1.9002-2.4031 95.775-0.075 95.775-0.075 0.076-36.219 0.076-36.219-0.6762-0.1628c-0.3719-0.09-269.7-0.126-598.5-0.081l-597.83 0.082v-1724.6h2850.4v1724.6l-598.17-0.075c-442.18-0.056-598.28 0.013-598.58 0.2617-0.3372 0.2799-0.406 6.379-0.406 35.976 0 19.601 0.082 35.852 0.1821 36.113 0.1655 0.4313 8.8865 0.4745 95.809 0.4745h95.627l1.3856 1.4814c0.7621 0.8147 2.1615 2.671 3.1097 4.125 6.5031 9.9717 11.882 25.969 15.187 45.168l1.02 5.9248-430.09 0.075c-236.55 0.041-434.71 0.04-440.37 0zm1789.1-224.6c0.2489-0.2999 0.3172-204.33 0.2618-781.88l-0.075-781.47h-2718.4l-0.0751 781.63c-0.06 625.11 0.00005 781.68 0.3 781.87 0.20628 0.131 611.74 0.2402 1359 0.2427 1141.5 0 1358.6-0.06 1358.9-0.4012z"/>
    <path id="path13944" fill="#2b2b2b" d="m1606.4 2553.2c1.9908-12.428 5.378-25.42 9.014-34.575 2.5253-6.3581 6.4117-13.299 9.4484-16.875l1.3376-1.575h95.505c86.423 0 95.55-0.045 95.977-0.4714 0.4233-0.4233 0.4714-4.1252 0.4714-36.263 0-29.725-0.069-35.849-0.406-36.129-0.3001-0.2491-156.42-0.3173-598.65-0.2617l-598.24 0.075v-1724.6h2850.4v1724.6h-1196.8l-0.076 36.118c-0.056 26.442 0.014 36.227 0.2617 36.525 0.2833 0.3413 15.8 0.4071 95.986 0.4071h95.648l1.791 2.297c5.6193 7.2065 10.6 18.838 14.24 33.253 1.3851 5.4853 2.8711 12.749 3.4983 17.1 0.1903 1.32 0.468 2.7038 0.6171 3.075l0.2712 0.675h-880.68l0.5406-3.375zm1799-1002.7c0.06-625.23-0.0001-781.83-0.3-782.02-0.2063-0.13098-611.82-0.24022-1359.1-0.24275-1343.1-0.005-1358.8 0.002-1359.1 0.57569-0.33703 0.62974-0.46535 1562.3-0.12844 1563.1 0.16603 0.4327 120.16 0.4679 1359.4 0.3995l1359.2-0.075 0.075-781.78z"/>
    <path id="path13942" fill="#1b1b1b" d="m1605.9 2556.3c0.1839-0.1213 0.4307-1.0305 0.5484-2.0205 0.4063-3.4183 2.2567-12.662 3.6376-18.172 3.8112-15.207 9.0154-27.163 14.903-34.238l1.4475-1.7393 95.764-0.075 95.764-0.076v-73.2l-598.28-0.075c-398.8-0.05-598.28 0.025-598.28 0.225 0 0.1651-0.135 0.3001-0.3 0.3001-0.19993 0-0.3-287.65-0.3-862.35v-862.35h2850.4l-0.024 862.43c-0.013 474.33-0.092 862.26-0.175 862.05-0.121-0.2998-120.06-0.375-598.32-0.375-591.08 0-598.17 0.01-598.48 0.5803-0.2091 0.3906-0.3106 12.211-0.3106 36.17s0.1015 35.779 0.3106 36.17c0.306 0.5718 1.6963 0.5802 95.526 0.5802 52.368 0 95.428 0.082 95.689 0.1821 0.428 0.1643 0.4746 2.9017 0.4746 27.9 0 21.972-0.078 27.719-0.375 27.722-0.25 0-0.225 0.1016 0.075 0.2954 0.2906 0.1879-151.9 0.2909-429.75 0.2909-236.61 0-430.05-0.099-429.87-0.2204zm1799.5-223.9c0.2798-0.2798 0.36-174.48 0.36-782.11v-781.75l-0.7695-0.29257c-1.0598-0.40292-2716.6-0.40292-2717.7 0l-0.76953 0.29257v781.91c0 430.05 0.09 782 0.2 782.11s611.77 0.2 1359.2 0.2c1056.6 0 1359.1-0.08 1359.4-0.36zm-938.94 223.86c0.3-0.1938 0.325-0.2923 0.075-0.2954-0.2972 0-0.375-5.7075-0.375-27.507v-27.502l0.7795 0.7273c2.3542 2.1966 7.2595 10.964 9.829 17.569 3.5319 9.0779 6.898 22.091 8.7568 33.852 0.2602 1.6468 0.6332 3.096 0.8289 3.2204s-4.3017 0.2263-9.9942 0.2263c-6.7915 0-10.195-0.1-9.9-0.2909z"/>
    <path id="path13940" fill="#101010" d="m1818 2502c0.1101-1.2789 0.2568-18.626 0.3261-38.55l0.1259-36.225h455.4l0.1306 36.375c0.072 20.006 0.1741 37.32 0.2274 38.475l0.097 2.1-228.25 0.075-228.25 0.075 0.2002-2.3251zm-1197.1-937.13-0.01-862.2 32.7 32.7 32.7 32.7 0.0006 782.52 0.0006 782.52-32.233 46.382c-17.728 25.51-32.439 46.652-32.691 46.982-0.41055 0.538-0.45887-88.538-0.46743-861.6zm2850.1-0.1502c0-474.13 0.034-668.09 0.075-431.03s0.041 624.99 0 862.05-0.075 43.102-0.075-431.03zm-32.837 814.73-32.132-46.275 0.01-782.7 0.01-782.7 32.25-32.25 32.25-32.25v861.22c0 473.67-0.058 861.22-0.1278 861.22-0.07 0-14.587-20.824-32.26-46.275z"/>
   </g>
  </g>
  <g id="g5441" fill-opacity="0" transform="translate(-138.35,90.219)">
   <g id="g4950" transform="translate(38 -7.0771)">
    <rect id="rect14119" stroke-linejoin="round" stroke-opacity=".50761" fill-opacity="1" ry=".18063" height="175.41" width="306.05" stroke="#010000" y="767.98" x="106.3" stroke-width=".052315" fill="#2d5785"/>
    <g id="g6050" stroke="#000" transform="translate(0 .14425)">
     <path id="rect20853" d="m324.55 838.32 1.1827-1.1971 1.7617-1.1057 2.498-0.7825 170.93-0.0133c1.0602 0.30306 2.2943 0.78966 2.8427 1.0437 0.49445 0.31341 1.0869 0.68372 1.6265 1.1311 0.42696 0.35392 0.80395 0.78999 1.192 1.0468l1.3428 1.6658 0.89226 2.1082 0.60702 2.2005-0.0907 114.82h-187.05v-116.32l1.1562-2.9801z" fill-opacity=".76777" transform="translate(2.0502e-6,-1.174e-5)" stroke-width=".099837" fill="#fff"/>
     <path id="rect20851" d="m328.29 841.78 0.64017-0.66295 0.79907-0.56006 1.0288-0.36501h169.28l1.3878 0.49964 0.81466 0.59659 0.77992 0.70041 0.62648 0.76331 0.48516 1.0735 0.33209 1.1636v109.73h-177.31l0.0454-110.11 0.13719-0.96178 0.42216-1.0367z" fill-opacity="1" transform="translate(2.0502e-6,-1.174e-5)" stroke-width="8.9" fill="#007cff"/>
     <path id="rect5453" d="m297.73 959.35h237.66l0.001 6.7469-0.30062 0.92382-0.6082 0.74579-0.97656 0.55969-1.3827 0.2797h-231.13l-0.99615-0.21608-0.9737-0.44021-0.7671-0.70294-0.52989-0.81864z" fill-opacity="1" transform="translate(2.0502e-6,-1.174e-5)" stroke-width=".1" fill="#b3b3b3"/>
    </g>
    <rect id="rect20855" height="12.143" width="6.4286" y="956.65" x="297.86" stroke-width=".8"/>
    <g id="g4763" stroke="#000" fill-opacity="1" transform="translate(0 2.1443)">
     <path id="path5462" stroke-width=".1" fill="#ccc" d="m297.69 957.31h237.74c0.007 2.266 0.0277 4.3729-0.00051 6.6386-82.493 0.0249-166.03 0.18242-236.93 0.25774-0.2754 0.00029-0.5506 0.002-0.8256 0.002-0.0466-2.1904 0.0124-4.7503 0.0124-6.8985z"/>
     <path id="path5460" stroke-width=".098197" fill="#b3b3b3" d="m404.7 957.31h23.718v1.6486l-0.15012 0.50242-0.33444 0.52811-0.40255 0.51137-0.43911 0.2587-0.48138 0.1281h-19.83l-0.58392-0.1708-0.52997-0.27172-0.42641-0.43064-0.42301-0.60158-0.11667-0.51435z"/>
     <rect id="rect5464" ry=".16492" height=".64792" width="8.3277" y="960.54" x="504.16" stroke-width=".060334"/>
    </g>
    <circle id="path5508" stroke-opacity=".55924" fill-opacity=".24171" cx="416.13" cy="839.62" stroke="#000b00" r=".97277" stroke-width=".554" fill="#fbfaf9"/>
   </g>
  </g>
 </g>
 <g id="g6113" transform="matrix(.93918 -.34342 .34342 .93918 -377.13 1.4609)">
  <g id="g6123">
   <rect id="rect6133" stroke-linejoin="round" ry="6.8268" clip-path="url(#clipPath6137)" transform="matrix(.93918 .34342 -.34342 .93918 -22.287 -3.1106)" height="16.279" width="22.318" stroke="#000" y="190.61" x="843.78" stroke-width=".1"/>
   <path id="path6141" d="m715.49 468.94-1.5576 4.1852z" fill-rule="evenodd" stroke="#e8641f" stroke-width="1px" fill="url(#linearGradient6149)"/>
   <g id="g6234" transform="translate(7.5135 2.7473)">
    <g id="g6203">
     <rect id="rect6108" height="20.251" width="14.868" y="326.12" x="678.77" stroke-width="0" fill="#ccc"/>
     <path id="path5183" stroke-linejoin="round" stroke="#d45500" stroke-width=".8" d="m676.12 353.56 1.4009-1.6677 0.93392-1.6677 0.60037-2.1347v-1.919l1.0006-0.0155 0.53367 0.40025 0.8005 0.13342 9.7737 0.0236 0.87125-0.12937 0.50673-0.42788h0.85576v1.9345l0.66708 2.2681 1.2008 2.0012 0.93391 1.2675z"/>
     <circle id="ellipse5162" r="16.021" stroke="#000" cy="367.56" cx="686.19" stroke-width="2.407" fill="#d45500"/>
     <g id="g6208" stroke-linejoin="round" stroke="#d45500" fill-rule="evenodd">
      <path id="path4961" stroke-width=".5" d="m680.09 345.04 0.55319 0.51391 0.98344 0.35229 9.3538-0.003 0.93613-0.28749 0.58319-0.57048 0.99522-0.009-0.001-10.05-1.3418 0.004-0.89663 0.47913-10.086 0.009-0.86677-0.49232h-1.3397l0.003 10.065z"/>
      <path id="path6090" stroke-width=".38624" d="m680.04 334.17 0.55752 0.30428 0.99114 0.2086 9.427-0.002 0.94346-0.17022 0.58776-0.33779 1.003-0.005-0.001-5.9506-1.3523 0.002-0.90365 0.2837-10.165 0.005-0.87355-0.29151h-1.3502l0.003 5.9595z"/>
      <path id="path6092" stroke-width=".20774" d="m679.97 327.82 0.56432 0.087 1.0032 0.0596 9.5419-0.00057 0.95496-0.0486 0.59493-0.0965 1.0152-0.001-0.001-1.7006-1.3688 0.00057-0.91467 0.0811-10.289 0.001-0.8842-0.0833h-1.3666l0.003 1.7032z"/>
     </g>
    </g>
    <circle id="ellipse5160" r="13.351" stroke="#000" cy="367.56" cx="686.19" stroke-width=".25549" fill="#ccc"/>
    <circle id="path5158" r="7.0327" stroke="#000" cy="367.46" cx="686.07" stroke-width=".13458" fill="#f60"/>
   </g>
  </g>
 </g>
 <g id="g17641" transform="translate(41.922 .000061646)">
  <g id="g4936" transform="translate(22.748 -192.3)">
   <g id="g4991" transform="matrix(.04275 0 0 .04275 306.68 344.24)">
    <path id="path5007" fill="#fffefe" d="m2716.3 510.82v-703.12l33.087-61.026 62.847-29.352h553.68l71.187 28.284 27.751 62.36v1408.9l-25.616 53.311-53.043 34.155h-586.5l-31.486-12.274-17.218-13.342-18.145-18.623-16.544-40.559z"/>
    <path id="path5005" fill="#ececec" d="m2805.5 1302.8c-40.381-6.2906-74.852-35.404-87.802-74.154-6.4749-19.375-6.0282 17.197-6.0347-494.05l-0.01-465.25h-2.0454c-1.125 0-3.15-1.1046-4.5-2.4546l-2.4546-2.4545v-49.182l2.4546-2.4545c1.35-1.35 3.375-2.4546 4.5-2.4546 2.0247 0 2.0454-0.38519 2.0454-38s-0.021-38-2.0454-38c-1.125 0-3.15-1.1046-4.5-2.4546l-2.4546-2.4545v-49.182l2.4546-2.4545c1.35-1.35 3.375-2.4546 4.5-2.4546 2.0251 0 2.0454-0.38148 2.0454-38.5s-0.02-38.5-2.0454-38.5c-1.125 0-3.15-1.1046-4.5-2.4546l-2.4546-2.4545v-63.182l2.4546-2.4545c1.35-1.35 3.375-2.4546 4.5-2.4546 2.0367 0 2.0454-0.24451 2.0513-57.25 0.01-63.06 0.4423-69.338 5.9543-85.791 5.6445-16.848 13.786-29.86 26.954-43.08 12.914-12.965 28.726-22.586 45.848-27.897 16.401-5.0877 11.055-4.9707 227.49-4.977 181.3-0.005 201.75-0.16254 201.75-1.5514 0-0.85 1.1045-2.65 2.4545-4l2.4546-2.4545h113.18l2.4545 2.4545c1.35 1.35 2.4546 3.15 2.4546 4 0 1.3059 1.8211 1.5464 11.75 1.5514 34.188 0.0172 61.237 10.687 83.336 32.874 13.168 13.219 21.309 26.232 26.954 43.08 6.4317 19.197 5.9484-39.544 5.9484 723.04 0 763.43 0.4973 703.78-6.0288 723.3-13.096 39.186-47.551 68.011-88.713 74.216-13.961 2.1045-556.88 2.0459-570.4-0.062zm579.16-10.245c12.24-3.2578 28.89-11.749 38.994-19.885 16.436-13.236 30.1-34.499 35.234-54.828l2.2727-9v-1407l-2.2727-9c-9.9917-39.567-44.631-70.86-84.591-76.418-10.948-1.5227-555.32-1.5227-566.27 0-24.591 3.4202-48.87 17.278-64.691 36.924-8.3704 10.394-16.752 27.028-19.9 39.494l-2.2727 9v1407l2.2727 9c3.148 12.466 11.529 29.1 19.9 39.494 11.627 14.438 29.729 27.1 47.068 32.925 15.342 5.1534 0.8515 4.9276 303.76 4.7354l282-0.1789 8.5-2.2623zm-305.24-36.177c-15.256-2.79-26.718-8.9268-38.295-20.504-14.966-14.966-20.932-29.227-20.932-50.032s5.9668-35.066 20.932-50.032c14.966-14.966 29.227-20.932 50.032-20.932s35.066 5.9667 50.032 20.932c14.966 14.966 20.932 29.227 20.932 50.032s-5.9668 35.066-20.932 50.032c-9.8476 9.8476-17.577 14.59-30.032 18.428-7.8615 2.4221-24.054 3.4816-31.737 2.0765zm31.237-9.989c19.162-6.4329 33.814-20.878 40.787-40.212 2.3483-6.5117 2.645-8.7931 2.645-20.335s-0.2967-13.823-2.645-20.335c-3.6162-10.028-8.153-17.233-15.436-24.516s-14.489-11.82-24.516-15.436c-6.5118-2.3483-8.7932-2.6451-20.335-2.6451s-13.823 0.2968-20.335 2.6451c-19.34 6.9746-33.816 21.662-40.2 40.787-2.9438 8.8202-3.6555 23.195-1.6209 32.74 5.0236 23.566 24.597 43.495 47.948 48.818 8.9058 2.0302 25.355 1.2927 33.707-1.5113zm-38.648-31.108c-4.5639-1.3673-9.0848-6.9774-9.8764-12.256-0.363-2.4207-0.5059-11.408-0.3176-19.971 0.3729-16.956 0.8105-18.358 7.2265-23.15 2.5656-1.9163 4.1263-2.0618 22.113-2.0618 17.986 0 19.548 0.1456 22.116 2.0618 6.7152 5.0109 6.8867 5.6814 6.8867 26.938 0 17.987-0.1456 19.548-2.0618 22.115-4.919 6.5884-5.9141 6.8671-25.258 7.0761-9.7242 0.105-19.097-0.2335-20.829-0.7523zm38.194-9.3932c2.4088-2.4088 2.4546-2.7638 2.4546-19.046s-0.046-16.637-2.4546-19.046c-2.4088-2.4088-2.7637-2.4545-19.045-2.4545-16.282 0-16.637 0.046-19.046 2.4545-2.4088 2.4088-2.4546 2.7638-2.4546 19.046s0.046 16.637 2.4546 19.046c2.4088 2.4088 2.7637 2.4545 19.046 2.4545s16.637-0.046 19.045-2.4545zm-341.08-134.79c-0.2611-0.6883-0.3598-256.63-0.2192-568.75l0.2556-567.5h641v1137l-320.28 0.2515c-255.7 0.2009-320.38-0.0008-320.76-1zm261-1211.6c-14-6.3595-13.548-24.591 0.7592-30.567 3.2153-1.3431 11.394-1.5501 60.5-1.5311 52.927 0.0205 57.057 0.1466 60.824 1.8577 14 6.3595 13.548 24.591-0.7592 30.567-3.2153 1.3431-11.394 1.5501-60.5 1.5311-52.927-0.0205-57.057-0.1466-60.824-1.8577zm120.07-6.315c2.866-1.3058 5.4721-5.4994 5.4721-8.8053 0-3.306-2.6061-7.4995-5.4721-8.8053-3.7519-1.7095-114.3-1.7095-118.06 0-6.844 3.1183-7.0639 13.695-0.362 17.41 3.3067 1.8328 114.42 2.0212 118.42 0.20082zm-164.21-3.994c-5.5235-2.6704-5.0391-11.443 0.7646-13.847 8.9054-3.6887 15.066 9.9114 6.2996 13.906-2.9576 1.3476-4.1758 1.3374-7.0642-0.059zm99.273-49.853c-4.237-1.2674-9.4742-6.8009-10.682-11.286-1.5678-5.822-0.2488-11.294 3.8034-15.779 6.3937-7.077 16.309-7.5764 23.391-1.1781 7.0723 6.3894 7.5761 16.31 1.1874 23.381-4.7359 5.2421-10.832 6.9168-17.7 4.8624z"/>
    <path id="path5003" fill="#d9d9d9" d="m2809.6 1302.7c-21.313-3.2596-38.156-10.145-53.56-21.895-22.179-16.918-37.145-41.629-41.971-69.3-1.2784-7.3309-1.4694-69.174-1.4694-475.8v-467.37h-2.845c-5.9181 0-6.155-1.1037-6.155-28.674 0-22.965 0.1499-25.152 1.8288-26.671 1.0058-0.91025 3.0308-1.655 4.5-1.655h2.6712v-78h-2.845c-5.9181 0-6.155-1.1037-6.155-28.674 0-22.965 0.1499-25.152 1.8288-26.671 1.0058-0.91025 3.0308-1.655 4.5-1.655h2.6712v-79h-2.845c-6.0855 0-6.155-0.40271-6.155-35.674 0-29.747 0.1296-32.134 1.8288-33.671 1.0058-0.91025 3.0308-1.655 4.5-1.655h2.6712v-59.369c0-64.319 0.2532-68.138 5.5817-84.176 8.7716-26.401 27.947-49.201 52.418-62.327 9.6002-5.1496 26.302-10.696 36.322-12.061 5.3243-0.7257 72.626-1.0662 210.75-1.0662h202.93v-2.345c0-1.2898 0.8229-3.0898 1.8287-4 1.6567-1.4992 7.1941-1.655 58.845-1.655 53.966 0 57.105 0.0978 58.671 1.8287 0.9102 1.0058 1.655 2.8058 1.655 4 0 2.1164 0.3267 2.1713 12.928 2.1713 16.831 0 26.213 1.3491 39.072 5.6184 39.494 13.112 67.523 45.585 74.548 86.366 1.2814 7.4387 1.4344 97.221 1.2095 710.02l-0.2575 701.5-2.8026 9.9648c-8.5229 30.304-28.142 55.195-54.697 69.395-8.546 4.5699-15.058 7.1175-26.5 10.368l-8 2.2724-282.5 0.1207c-155.38 0.066-283.63-0.051-285-0.2617zm566.03-7.8077c43.672-6.5834 78.824-41.754 85.507-85.551 2.1896-14.35 2.1896-1393.7 0-1408-6.4725-42.418-39.5-76.684-82.039-85.113-10.454-2.0715-565.55-2.0715-576 0-42.462 8.4142-75.578 42.771-82.039 85.113-2.1896 14.35-2.1896 1393.7 0 1408 6.6099 43.318 41.672 78.769 84.539 85.476 13.183 2.0627 556.37 2.1342 570.03 0.075zm-300.85-40.496c-4.0264-0.9889-11.226-3.7327-16-6.0974-6.9414-3.4385-10.407-6.027-17.309-12.927-7.2697-7.2679-9.3447-10.117-13.166-18.079-10.342-21.549-10.342-41.354 0-62.903 3.8341-7.9889 5.8712-10.78 13.166-18.037 10.176-10.124 20.238-15.87 33.254-18.99 16.485-3.952 33.823-1.7673 49.252 6.2063 11.283 5.831 23.565 18.112 29.396 29.396 10.813 20.924 10.813 44.828 0 65.752-3.1312 6.0589-6.3807 10.318-12.784 16.754-7.257 7.2944-10.048 9.3316-18.037 13.166-16.016 7.6862-32.054 9.6198-47.772 5.7594zm33.821-6.6201c20.869-6.1838 36.413-21.223 43.76-42.338 2.2888-6.5778 2.6433-9.2055 2.6433-19.596 0-10.391-0.3545-13.019-2.6433-19.596-7.2107-20.722-20.942-34.454-41.664-41.664-6.5777-2.2889-9.2055-2.6433-19.596-2.6433-10.391 0-13.019 0.3544-19.596 2.6433-21.299 7.4112-36.085 22.802-42.522 44.26-2.4701 8.2345-2.4729 25.769-0.01 33.948 7.5585 25.053 27.89 43.011 53.124 46.922 5.4696 0.8477 20.916-0.28 26.5-1.9348zm-37.929-34.186c-1.8859-0.9616-4.3609-3.0189-5.5-4.5717-1.9262-2.6258-2.0711-4.1774-2.0711-22.177 0-17.999 0.1449-19.551 2.0711-22.177 4.0783-5.5596 7.1989-6.3202 25.929-6.3202s21.851 0.7606 25.929 6.3202c1.9262 2.6258 2.0711 4.1774 2.0711 22.177 0 17.999-0.1449 19.551-2.0711 22.177-4.0783 5.5596-7.1989 6.3202-25.929 6.3202-14.211 0-17.563-0.2869-20.429-1.7485zm40.006-7.1715 2.9231-2.9231v-33.308l-2.9231-2.9231-2.9231-2.9231h-33.308l-2.9231 2.9231-2.9231 2.9231v33.308l2.9231 2.9231 2.9231 2.9231h33.308l2.9231-2.9231zm-340.6-136.3c-0.2611-0.6883-0.3598-256.18-0.2192-567.75l0.2556-566.5h639v1135l-319.28 0.2515c-254.9 0.2009-319.38-0.0008-319.76-1zm259.76-1211.4c-6.8869-3.4209-10.207-10.291-8.7434-18.093 0.8721-4.6491 7.1462-10.919 11.764-11.756 1.7912-0.32477 29.167-0.45825 60.835-0.2966l57.578 0.29389 3.7776 2.8818c8.7163 6.6495 8.7163 18.587 0 25.236l-3.7777 2.8818-59.078 0.2398c-52.879 0.21464-59.422 0.069-62.356-1.3882zm120.81-4.8686c3.1601-1.6342 5.9673-6.0952 5.9673-9.4831s-2.8072-7.8489-5.9673-9.4831c-4.4078-2.2793-114.66-2.2793-119.07 0-3.1601 1.6342-5.9673 6.0952-5.9673 9.4831 0 3.287 2.7597 7.8053 5.7626 9.4346 4.1546 2.2543 114.92 2.2993 119.27 0.0485zm-165.58-6.9376c-1.35-1.35-2.4546-3.5673-2.4546-4.9274 0-2.7795 4.1647-6.618 7.1804-6.618 2.5485 0 6.8196 4.384 6.8196 7 0 2.698-4.302 7-7 7-1.15 0-3.1954-1.1046-4.5454-2.4546zm98.996-48.952c-10.09-4.3949-12.473-17.806-4.5681-25.711 6.4866-6.4866 15.749-6.4866 22.235 0 12.411 12.411-1.5512 32.731-17.667 25.711z"/>
    <path id="path5001" fill="#cdcdcd" d="m2809.6 1302.2c-15.546-1.7787-34.772-8.9406-48.119-17.925-8.7619-5.8982-22.854-19.833-28.897-28.574-10.242-14.815-16.904-32.679-18.916-50.718-0.7433-6.6662-1.069-150.8-1.069-473.13v-463.54h-2.0454c-1.125 0-3.15-1.1046-4.5-2.4546l-2.4546-2.4545v-47.182l2.4546-2.4545c1.35-1.35 3.375-2.4546 4.5-2.4546 2.0256 0 2.0454-0.37778 2.0454-39s-0.02-39-2.0454-39c-1.125 0-3.15-1.1046-4.5-2.4546l-2.4546-2.4545v-47.182l2.4546-2.4545c1.35-1.35 3.375-2.4546 4.5-2.4546 2.026 0 2.0454-0.37407 2.0454-39.5s-0.019-39.5-2.0454-39.5c-1.125 0-3.15-1.1046-4.5-2.4546l-2.4546-2.4545v-61.182l2.4546-2.4545c1.35-1.35 3.375-2.4546 4.5-2.4546 2.036 0 2.0454-0.25526 2.0454-55.539 0-32.77 0.4383-59.47 1.069-65.126 2.9317-26.292 14.204-48.791 33.854-67.576 14.759-14.109 30.904-22.816 52.013-28.05l8.5637-2.1236 206.25-0.31733c183.75-0.28271 206.25-0.48318 206.25-1.8376 0-0.83614 1.1045-2.6248 2.4545-3.9748l2.4546-2.4545h111.18l2.4545 2.4545c1.35 1.35 2.4546 3.0796 2.4546 3.8435 0 1.1014 3.3638 1.5245 16.25 2.0438 34.249 1.3801 56.104 10.209 78.001 31.509 18.716 18.207 29.815 40.785 32.68 66.484 1.507 13.515 1.507 1385.8 0 1399.3-2.0115 18.039-8.6739 35.903-18.916 50.718-6.0423 8.7404-20.135 22.675-28.897 28.574-13.991 9.4182-32.254 16.056-49.453 17.974-11.736 1.3087-550.21 1.2621-561.67-0.049zm577.5-9.1339c33.78-10.327 59.844-35.205 70.454-67.248 1.6391-4.95 3.4415-11.925 4.0054-15.5 1.4294-9.0635 1.4294-1400.9 0-1410-0.5639-3.575-2.3663-10.55-4.0054-15.5-10.611-32.044-36.675-56.921-70.454-67.249l-9-2.7515h-574l-9 2.7515c-33.78 10.327-59.844 35.205-70.454 67.249-1.6391 4.95-3.4415 11.925-4.0054 15.5-1.4294 9.0636-1.4294 1400.9 0 1410 4.7279 29.978 25.157 58.545 52.743 73.755 8.146 4.4913 22.856 9.6936 31.535 11.153 2.8722 0.4828 131.76 0.809 289.18 0.7319l284-0.1391 9-2.7515zm-305.96-37.808c-22.922-3.5446-42.369-17.762-52.576-38.441-5.4136-10.967-7.2923-18.953-7.2923-31 0-11.556 1.8284-19.724 6.7157-30 7.0265-14.774 17.327-25.207 32.117-32.529 10.951-5.4215 18.94-7.3037 31-7.3037s20.049 1.8822 31 7.3037c14.79 7.3222 25.091 17.755 32.117 32.529 4.8873 10.276 6.7157 18.444 6.7157 30 0 12.06-1.8822 20.049-7.3038 31-7.3238 14.793-17.765 25.101-32.529 32.112-12.427 5.9017-27.395 8.2718-39.964 6.3282zm23.665-6.0249c8.7234-1.7848 22.917-9.2042 29.802-15.578 14.095-13.05 20.968-28.73 20.968-47.837 0-18.391-6.7121-34.322-19.633-46.596-12.814-12.173-27.116-17.874-44.838-17.874-25.576 0-46.938 13.383-57.927 36.29-5.1828 10.803-6.5728 16.763-6.5728 28.181 0 11.483 1.3902 17.376 6.7224 28.5 6.1789 12.89 15.875 22.762 28.453 28.971 4.7712 2.355 11.071 4.8618 14 5.5705 6.6558 1.6108 22.015 1.8089 29.026 0.3746zm-31.849-34.967c-4.5802-1.3872-9.0855-6.9918-9.8802-12.291-0.3651-2.4347-0.508-10.972-0.3176-18.971 0.3765-15.815 0.892-17.392 7.2314-22.125 2.5544-1.9072 4.1378-2.0618 21.115-2.0618s18.56 0.1546 21.115 2.0618c6.6671 4.9777 6.8852 5.7992 6.8852 25.938 0 16.977-0.1547 18.56-2.0618 21.115-4.8737 6.5277-6.0333 6.8664-24.259 7.0863-9.1737 0.1107-18.096-0.2278-19.828-0.7522zm38.194-7.4035c2.42-2.4201 2.4546-2.7021 2.4546-20.046 0-23.809 1.3089-22.5-22.5-22.5s-22.5-1.3089-22.5 22.5-1.3089 22.5 22.5 22.5c17.343 0 17.625-0.034 20.045-2.4545zm-340.55-703.55v-567h638v1134h-638v-567zm261.59-644.04c-4.1977-1.2556-9.4703-6.7867-10.652-11.174-2.0468-7.6011 3.2399-16.543 11.116-18.802 2.0604-0.59093 25.38-0.9833 58.442-0.9833 33.061 0 56.381 0.39237 58.442 0.9833 7.8762 2.2589 13.163 11.201 11.116 18.802-1.2416 4.6111-6.4773 9.9012-11.116 11.232-4.2767 1.2266-113.23 1.1727-117.35-0.058zm121.01-7.3587c2.7873-2.7873 3.4-4.1569 3.4-7.6s-0.6127-4.8127-3.4-7.6l-3.4-3.4h-117.4l-3.4 3.4c-2.7873 2.7873-3.4 4.1569-3.4 7.6s0.6127 4.8127 3.4 7.6l3.4 3.4h117.4l3.4-3.4zm-166.24-3.7696c-5.0106-2.4262-4.8645-9.3701 0.2462-11.699 4.9894-2.2733 10.531 3.2686 8.258 8.258-0.8489 1.8631-5.0089 4.9282-6.1653 4.5426-0.1116-0.0372-1.1641-0.53308-2.3389-1.1019zm99.23-49.872c-4.1977-1.2556-9.4703-6.7867-10.652-11.174-2.7922-10.369 7.309-21.142 17.952-19.145 4.7222 0.8859 10.842 6.6699 12.134 11.468 2.1206 7.8755-2.9198 16.657-10.82 18.851-4.2493 1.1802-4.6693 1.1802-8.6149-0.0001z"/>
    <path id="path4999" fill="#c6c6c6" d="m2802.3 1300.8c-21.985-4.3683-40.684-14.374-56.746-30.364-14.005-13.942-23.255-30.047-29.15-50.752l-2.2296-7.8302-0.2563-470.91c-0.1876-344.8-0.5551-471.27-1.3724-472.25-0.6139-0.7397-2.0961-1.3449-3.2937-1.3449-4.401 0-4.5776-1.061-4.5776-27.5 0-26.359 0.1867-27.5 4.5-27.5 4.449 0 4.5-0.45383 4.5-40s-0.051-40-4.5-40c-4.3133 0-4.5-1.1406-4.5-27.5s0.1867-27.5 4.5-27.5c4.4527 0 4.5-0.42589 4.5-40.5s-0.047-40.5-4.5-40.5c-4.401 0-4.5-0.75921-4.5-34.5s0.099-34.5 4.5-34.5c1.155 0 2.64-0.54 3.3-1.2 0.9065-0.90653 1.2-15.798 1.2-60.89 0-64.15 0.2086-67.353 5.375-82.543 12.139-35.691 39.243-60.78 77.427-71.672l7.6981-2.1958 207.89-0.5c196.71-0.47311 207.94-0.5941 208.75-2.25 2.8167-5.739-2.8051-5.25 60.359-5.25 63.163 0 57.55-0.48824 60.356 5.25 0.7495 1.5328 3.0765 1.8272 18.75 2.3719 19.299 0.67068 26.456 2.033 40.749 7.7564 34.741 13.911 60.863 46.91 66.59 84.122 0.8665 5.6294 1.0796 182.59 0.8544 709.5l-0.2999 702-2.2296 7.8302c-10.741 37.721-36.27 65.265-71.638 77.295-16.768 5.7032 1.6555 5.3832-303.99 5.281-233.33-0.078-282.31-0.3262-288.01-1.4599zm576.37-5.304c43.953-9.8871 75.327-41.8 83.212-84.642 1.0431-5.6681 1.2883-139.91 1.2883-705.5s-0.2452-699.83-1.2883-705.5c-7.3415-39.889-36.526-71.835-75.328-82.453-4.0612-1.1114-11.659-2.4688-16.884-3.0164-12.986-1.361-544.01-1.361-557 0-24.637 2.5821-46.397 12.977-63.512 30.341-14.608 14.821-23.693 31.83-28.642 53.628-1.6529 7.2792-2.5289 1386.2-0.8917 1403.5 1.1876 12.582 2.8328 19.606 7.0712 30.191 14.062 35.12 47.117 60.184 84.662 64.195 4.297 0.4591 132.46 0.7506 284.81 0.6478 215.88-0.1456 278.21-0.4598 282.5-1.424zm-300.5-40.766c-26.282-6.6041-45.095-23.116-53.187-46.684-2.5598-7.4552-2.8129-9.4519-2.8129-22.192 0-12.76 0.2506-14.73 2.8305-22.245 6.9324-20.194 23.313-36.65 43.835-44.036 6.696-2.4101 8.6415-2.6401 22.335-2.6401 13.693 0 15.639 0.23 22.335 2.6401 10.886 3.9184 17.751 8.3674 26.665 17.281 8.9139 8.9139 13.363 15.779 17.281 26.665 2.4102 6.696 2.6402 8.6415 2.6402 22.335 0 13.693-0.23 15.639-2.6402 22.335-7.3015 20.286-23.692 36.746-43.51 43.695-6.6242 2.3229-9.6891 2.771-20.771 3.0365-7.15 0.1714-13.9 0.085-15-0.191zm32.5-6.9693c20.438-6.4186 35.861-21.939 42.636-42.906 2.1382-6.6179 2.5848-9.9004 2.5848-19s-0.4466-12.382-2.5848-19c-6.828-21.132-22.004-36.308-43.136-43.136-6.618-2.1383-9.9004-2.5848-19-2.5848-9.0997 0-12.382 0.4465-19 2.5848-21.143 6.8315-36.356 22.052-43.116 43.136-3.6575 11.409-3.6575 26.591 0 38 3.3898 10.574 8.7502 19.471 16.217 26.916 17.305 17.256 42.081 23.313 65.399 15.99zm-40.702-35.366c-5.6872-3.4677-6.2986-5.9468-6.2986-25.54 0-19.594 0.6114-22.073 6.2986-25.54 2.8622-1.7452 5.1089-1.952 21.202-1.952 16.092 0 18.339 0.2068 21.201 1.952 5.6991 3.4749 6.299 5.9281 6.2948 25.741 0 15.89-0.2132 18.143-1.9558 21.001-3.4749 5.699-5.9281 6.2989-25.741 6.2948-15.89 0-18.143-0.2132-21.001-1.9558zm41.431-5.3132 2.7709-2.7728v-34.908l-2.7728-2.7728-2.7727-2.7727h-34.909l-2.7727 2.7727-2.7728 2.7728v17.397c0 16.934 0.063 17.464 2.3743 19.924 3.139 3.3412 4.0225 3.4713 22.355 3.2896l15.729-0.1558 2.7709-2.7727zm-339.73-703.73v-566h636v1132h-636v-566zm257.24-645.99c-9.6588-5.8891-9.6588-20.122 0-26.011 3.1549-1.9236 5.1467-1.9871 62.259-1.9871s59.104 0.0636 62.259 1.9871c9.6588 5.8891 9.6588 20.122 0 26.011-3.1549 1.9236-5.1467 1.9871-62.259 1.9871s-59.104-0.0636-62.259-1.9871zm122.84-3.262c6.9747-4.7404 6.9747-14.746 0-19.487-2.3727-1.6127-7.0508-1.7816-57.084-2.0611-29.975-0.16744-56.404-0.0286-58.732 0.30852-7.1207 1.0314-11.796 7.2834-10.504 14.045 0.5998 3.138 5.465 8.1568 8.4938 8.762 1.2329 0.24637 27.666 0.38967 58.742 0.31844 52.115-0.11947 56.7-0.26584 59.084-1.8861zm-166.43-7.5721c-3.5877-3.9644-0.8302-10.171 4.5188-10.171 5.1213 0 7.7919 6.9111 3.9975 10.345-2.4152 2.1857-6.4556 2.1033-8.5163-0.17375zm97.586-50.166c-6.9561-4.2412-9.4067-13.941-5.2463-20.765 7.931-13.008 27.998-7.4466 27.998 7.7591 0 11.636-12.902 19.011-22.752 13.005z"/>
    <path id="path4997" fill="#a5a5a5" d="m2805.5 1300.8c-21.705-3.4006-41.207-13.174-57.612-28.871-16.424-15.716-25.349-31.254-31.931-55.594-1.6621-6.1455-1.7862-32.185-2.2753-477.5l-0.5173-471-2.5-0.34118c-5.908-0.80626-6-1.2303-6-27.659s0.092-26.853 6-27.659l2.5-0.34118v-79l-2.5-0.34118c-5.908-0.80626-6-1.2303-6-27.659s0.092-26.853 6-27.659l2.5-0.34118v-80l-2.5-0.34118c-1.375-0.18764-3.2875-1.0449-4.25-1.905-1.5958-1.426-1.75-4.3115-1.75-32.754s0.1542-31.328 1.75-32.754c0.9625-0.86009 2.875-1.7173 4.25-1.905l2.5-0.34118 0.5402-63 0.5401-63 2.6503-9.7422c5.4631-20.082 13.541-34.407 27.686-49.095 11.728-12.178 23.004-19.748 38.732-25.999 19.324-7.6813-0.3472-7.0312 230.84-7.6288 205.99-0.5325 206.99-0.54476 207.35-2.5351 0.2018-1.1 1.0651-2.7875 1.9186-3.75 1.4431-1.6275 5.4853-1.75 57.742-1.75 52.256 0 56.299 0.1225 57.742 1.75 0.8535 0.9625 1.7158 2.65 1.9163 3.75 0.3415 1.8732 1.4101 2.0402 16.853 2.6344 18.861 0.72567 28.766 2.5295 41.341 7.5289 16.217 6.4472 27.289 13.975 39.65 26.958 15.858 16.656 25.775 37.163 28.926 59.813 1.5147 10.89 1.5147 1394.2 0 1405.1-2.2528 16.197-9.8412 35.606-18.741 47.934-4.9754 6.8922-16.573 18.869-23.187 23.945-11.384 8.7372-25.755 15.643-41.172 19.785l-8.3278 2.2373-281 0.1771c-232.4 0.1464-282.5-0.058-289.66-1.1804zm578.66-6.1534c38.335-10.369 66.28-38.18 76.681-76.311l2.3186-8.5v-1409l-2.3186-8.5c-10.465-38.364-38.964-66.547-77.181-76.325l-8.5-2.1748h-568l-8.5 2.1748c-38.467 9.842-67.515 38.782-77.239 76.951l-2.2608 8.8745v1408l2.3186 8.5c11.453 41.986 45.631 72.508 87.681 78.299 1.65 0.2272 129.9 0.3598 285 0.2944l282-0.1187 8-2.1639zm-306.5-40.796c-27.691-5.5245-49.236-27.349-54.582-55.289-1.7903-9.3568-1.7903-16.094 0-25.451 4.8221-25.203 22.125-44.83 47.084-53.409 7.1232-2.4483 9.425-2.7497 21-2.7497s13.877 0.3014 21 2.7497c21.896 7.5256 37.608 23.238 45.134 45.134 2.4482 7.1231 2.7496 9.4249 2.7496 21s-0.3014 13.877-2.7496 21c-11.727 34.12-45.205 53.884-79.636 47.015zm27.502-4.0143c23.953-5.0117 44.989-26.048 50.001-50.001 3.1253-14.937 1.229-29.536-5.6488-43.488-5.8642-11.896-16.969-23-28.864-28.864-19.301-9.5149-39.674-9.5149-58.975 0-16.865 8.3142-30.69 26.08-34.513 44.352-3.1253 14.937-1.229 29.536 5.6488 43.488 8.2049 16.644 25.994 30.622 43.852 34.457 8.5794 1.8426 19.854 1.8646 28.5 0.056zm-33.429-37.252c-1.8859-0.9616-4.3609-3.0189-5.5-4.5717-1.917-2.6133-2.0711-4.1889-2.0711-21.177s0.1541-18.563 2.0711-21.177c4.0303-5.4941 7.2887-6.3202 24.929-6.3202s20.899 0.8261 24.929 6.3202c1.917 2.6133 2.0711 4.1889 2.0711 21.177s-0.1541 18.563-2.0711 21.177c-4.0303 5.4941-7.2887 6.3202-24.929 6.3202-13.259 0-16.588-0.2996-19.429-1.7485zm40.006-5.1715 2.9231-2.9231v-35.308l-2.9231-2.9231-2.9231-2.9231h-35.308l-2.9231 2.9231-2.9231 2.9231v35.308l2.9231 2.9231 2.9231 2.9231h35.308l2.9231-2.9231zm-80.626-1349.5c-6.8891-3.0289-10.736-11.181-8.4885-17.991 1.4484-4.3886 6.9521-9.3273 11.267-10.11 1.7992-0.32638 28.776-0.46108 59.949-0.29932 55.449 0.28772 56.737 0.33876 59.438 2.3559 4.9486 3.6956 6.8844 7.1931 6.8844 12.438 0 5.2451-1.9359 8.7426-6.8845 12.438-2.706 2.0208-3.9169 2.0662-60.938 2.2851-46.84 0.17982-58.772-0.038-61.227-1.1175zm123.13-5.8412c4.7861-5.2232 4.7859-10.307-0.0004-15.529l-3.4232-3.7353h-119.31l-3.4232 3.7353c-2.6857 2.9306-3.4232 4.5837-3.4232 7.6733 0 4.2515 3.5199 9.5347 7.4185 11.135 1.1448 0.4699 28.329 0.76486 60.409 0.65547l58.327-0.19891 3.4227-3.7353zm-168.58-5.7647c-1.1-1.1-2-2.9-2-4s0.9-2.9 2-4 2.9-2 4-2 2.9 0.9 4 2 2 2.9 2 4-0.9 2.9-2 4-2.9 2-4 2-2.9-0.9-4-2zm98.301-50.08c-7.7278-3.8252-10.473-14.194-5.5151-20.835 5.0042-6.7025 11.601-8.5286 18.59-5.1455 4.7478 2.2984 8.6246 8.169 8.6246 13.06 0 4.7676-3.8816 10.764-8.3759 12.94-5.3592 2.5944-8.0499 2.5903-13.323-0.0201z"/>
    <path id="path4995" fill="#858585" d="m2804 1299.8c-4.4604-0.7528-12.439-2.9161-17.73-4.8073-17.273-6.1735-29.152-14.044-42.53-28.178-12.817-13.54-20.543-27.67-26.476-48.424l-2.153-7.5308-0.2583-470.91c-0.1889-344.28-0.5579-471.27-1.3725-472.25-0.6127-0.73833-2.094-1.3424-3.2916-1.3424-4.3847 0-4.5776-1.1166-4.5776-26.5 0-25.306 0.2028-26.5 4.5-26.5 4.4563 0 4.5-0.39793 4.5-41s-0.044-41-4.5-41c-4.2972 0-4.5-1.1941-4.5-26.5s0.2028-26.5 4.5-26.5c4.4599 0 4.5-0.36994 4.5-41.5s-0.04-41.5-4.5-41.5c-4.3906 0-4.5-0.81429-4.5-33.5s0.1094-33.5 4.5-33.5c4.5529 0 4.5 0.71298 4.5-60.628 0-61.677 0.3674-68.081 4.6956-81.831 5.4458-17.301 12.839-29.866 25.186-42.804 15.297-16.029 32.357-25.782 55.113-31.507 5.8845-1.4805 26.315-1.689 213.9-2.1835 206.11-0.54326 207.4-0.559 208.41-2.5466 0.5591-1.1 1.3321-2.675 1.7178-3.5 0.6113-1.3075 7.9888-1.5 57.483-1.5 62.701 0 56.696-0.55491 59.513 5.5 0.5622 1.2085 3.9805 1.6207 17.592 2.1214 17.796 0.6545 26.124 2.0453 38.41 6.4139 36.754 13.07 64.952 47.972 69.965 86.6 0.7739 5.9639 1.0042 209.27 0.8025 708.36l-0.2829 700-2.153 7.5308c-6.5701 22.98-14.016 35.847-29.787 51.469-12.516 12.398-22.081 18.72-36.543 24.152-19.724 7.4088 9.3771 6.7435-304.52 6.9611-234.71 0.1626-283.36-0.034-290.11-1.1734zm571.61-2.9012c44.852-6.8439 81.685-44.089 87.918-88.902 1.5326-11.018 1.5326-1394.3 0-1405.3-6.2329-44.813-43.066-82.058-87.918-88.902-14.269-2.1773-554.73-2.1773-569 0-44.852 6.8439-81.685 44.089-87.918 88.902-1.5326 11.019-1.5326 1394.3 0 1405.3 6.182 44.447 43.121 82.037 87.377 88.916 6.2761 0.9756 68.602 1.2702 284.04 1.3429 236.37 0.08 277.36-0.1152 285.5-1.3566zm-298.5-43.955c-14.47-3.3502-25.029-9.2328-35.18-19.6-7.3654-7.5219-12.647-16.238-16.035-26.463-2.3299-7.0306-2.6582-9.6265-2.6582-21.021 0-11.406 0.3263-13.981 2.6614-21 3.613-10.86 8.9157-19.46 16.899-27.403 33.317-33.153 89.336-23.764 109.81 18.403 9.981 20.557 8.9013 46.078-2.7656 65.373-4.9635 8.2087-15.457 18.708-23.423 23.436-13.75 8.1603-34.652 11.669-49.307 8.2758zm33-3.5946c11.093-3.4329 19.158-8.4417 28.004-17.391 13.364-13.52 18.983-27.166 18.983-46.098 0-19.252-5.6118-32.661-19.469-46.518s-27.266-19.469-46.518-19.469-32.661 5.6119-46.518 19.469c-9.33 9.3301-13.378 15.95-17.135 28.018-3.295 10.587-3.299 26.388-0.01 37 7.3835 23.817 25.993 40.97 50.527 46.574 8.4021 1.9189 23.166 1.191 32.135-1.5844zm-38-36.912c-1.1-0.4723-3.125-2.0692-4.5-3.5487-2.4883-2.6774-2.5-2.7806-2.5-22.09v-19.4l3.2693-3.2693 3.2692-3.2692h38.924l3.2692 3.2692 3.2693 3.2693v38.924l-3.2668 3.2693-3.2668 3.2692-18.233 0.2181c-10.028 0.12-19.133-0.1683-20.233-0.6406zm40.23-4.3502 2.7702-2.7728v-36.908l-2.7702-2.7728-2.7701-2.7727-16.749-0.313c-9.9643-0.1862-17.855 0.1075-19.479 0.7251-1.5017 0.5709-3.6289 2.5118-4.7271 4.313-1.7759 2.9128-1.9967 5.0438-1.9967 19.275 0 14.247 0.2195 16.36 2.0026 19.285 1.1014 1.8065 3.0122 3.7052 4.2463 4.2193 1.234 0.5141 9.9971 0.8361 19.474 0.7154l17.23-0.2193 2.7702-2.7727zm-50.051-1350.5c15.498-0.15492 41.148-0.15503 57-0.00026s3.1712 0.28152-28.179 0.28166-44.32-0.12649-28.821-0.2814zm-35.279-3.6508c-1.87-1.87-3.3819-4.0075-3.3599-4.75s0.6839-0.16501 1.4708 1.2833 2.9064 3.5782 4.7099 4.7332c1.8036 1.1549 2.6717 2.1074 1.9292 2.1167-0.7425 0.009-2.88-1.5132-4.75-3.3832zm125.29 1.4463c1.7555-1.0704 3.875-3.2062 4.7099-4.7463 0.835-1.54 1.5362-2.1926 1.5582-1.4501 0.051 1.7346-6.3365 8.1512-8.1099 8.1463-0.7425-0.002 0.086-0.87952 1.8418-1.9499zm-166.12-9.6178c-3.0327-3.0327-0.8378-8.4286 3.4285-8.4286 2.3861 0 5 2.614 5 5s-2.6139 5-5 5c-1.0214 0-2.5642-0.70714-3.4285-1.5714zm36.586-1.4286c0-1.375 0.227-1.9375 0.5044-1.25s0.2774 1.8125 0 2.5-0.5044 0.125-0.5044-1.25zm136 0c0-1.375 0.227-1.9375 0.5044-1.25s0.2774 1.8125 0 2.5-0.5044 0.125-0.5044-1.25zm-135.12-4.85c-0.052-1.7416 6.3436-8.1552 8.1099-8.1332 0.7425 0.009-0.1256 0.96177-1.9292 2.1167-1.8035 1.1549-3.923 3.2848-4.7099 4.7332-0.7869 1.4483-1.4488 2.0258-1.4708 1.2833zm133.14-1.6481c-0.6281-1.3786-2.6137-3.4038-4.4125-4.5005-1.7987-1.0967-2.7685-1.9956-2.1552-1.9977 2.5693-0.009 9.4523 7.2621 8.1283 8.5861-0.2302 0.23022-0.9325-0.70935-1.5606-2.0879zm-94.504-7.2512c15.498-0.15492 41.148-0.15503 57-0.00026s3.1712 0.28152-28.179 0.28166-44.32-0.12649-28.821-0.2814zm21.562-35.245c-9.4341-5.752-9.4341-18.259 0-24.011 6.3592-3.8773 14.608-1.571 18.765 5.2463 7.127 11.689-7.0752 25.892-18.765 18.765zm12.676-6.5475c5.0156-4.8496 1.1795-13.791-5.9166-13.791-6.7058 0-10.797 8.5684-6.4167 13.438 3.9353 4.3753 8.0513 4.493 12.333 0.35277zm-9.7166-1.6579c-0.66-0.66-1.2-2.37-1.2-3.8 0-3.3048 1.6952-5 5-5 3.3047 0 5 1.6952 5 5s-1.6953 5-5 5c-1.43 0-3.14-0.54-3.8-1.2z"/>
    <path id="path4993" fill="#747474" d="m2806.1 1299.3c-21.089-3.0653-43.258-14.42-59.117-30.28-13.535-13.535-22.836-29.858-28.653-50.287l-2.2296-7.8302-0.2573-471.41c-0.1813-332.23-0.5724-471.79-1.3245-472.69-0.5869-0.70722-2.4961-1.4244-4.2427-1.5937l-3.1755-0.3078v-50l3-0.33849c1.65-0.18616 3.5625-0.80376 4.25-1.3724 1.8154-1.5016 1.8154-80.076 0-81.578-0.6875-0.56868-2.6-1.1863-4.25-1.3724l-3-0.33849v-50l3-0.33849c1.65-0.18616 3.5625-0.80376 4.25-1.3724 1.8158-1.5019 1.8158-81.076 0-82.578-0.6875-0.56868-2.6-1.1863-4.25-1.3724l-3-0.33849v-64l3.1755-0.3078c1.7466-0.1693 3.6371-0.86392 4.2012-1.5436 0.6692-0.80631 1.1409-23.289 1.3575-64.692 0.3231-61.78 0.3899-63.663 2.5284-71.287 5.6899-20.283 14.953-36.539 28.557-50.116 16.63-16.597 37.902-27.392 60.044-30.472 5.3727-0.74727 70.708-1.0822 211.09-1.0822 161.43 0 203.52-0.25747 204.33-1.25 0.5646-0.6875 1.1822-2.375 1.3724-3.75l0.3459-2.5h114l0.3458 2.5c0.1902 1.375 0.7583 3.0028 1.2624 3.6174 0.5831 0.71085 7.5522 1.3106 19.154 1.6483 14 0.40754 20.057 1.0144 26.068 2.6122 19.726 5.2432 36.422 14.731 50.241 28.551 13.934 13.934 23.308 30.512 28.719 50.789l2.2099 8.282v1409l-2.2099 8.282c-5.3899 20.199-14.903 37.066-28.673 50.835-13.535 13.536-29.858 22.836-50.287 28.653l-7.8301 2.2296-282.5 0.1349c-156.3 0.075-285.18-0.2547-288.5-0.7372zm569.5-1.3591c45.439-6.9335 81.605-43.1 88.539-88.539 2.1896-14.35 2.1896-1393.7 0-1408-3.4616-22.686-13.272-41.829-29.996-58.53-16.732-16.709-35.954-26.562-58.542-30.009-14.269-2.1773-554.73-2.1773-569 0-22.596 3.4479-41.831 13.31-58.53 30.009s-26.561 35.934-30.009 58.53c-2.1896 14.35-2.1896 1393.7 0 1408 6.8805 45.092 43.139 81.58 87.995 88.552 6.2805 0.9761 68.549 1.2706 284.04 1.3433 236.37 0.08 277.36-0.1152 285.5-1.3566zm-388.9-1453c-2.6565-3.2008 1.2452-8.1178 4.7101-5.9357 3.4624 2.1804 2.2289 7.3877-1.75 7.3877-0.9653 0-2.2973-0.65338-2.9601-1.452zm97.259-50.508c-8.4799-5.1705-8.1341-17.971 0.6076-22.492 6.1318-3.1709 13.56-1.1115 17.134 4.75 6.9715 11.434-6.3084 24.713-17.742 17.742zm13.588-4.5692c1.7698-1.6979 2.3864-3.37 2.3864-6.4713 0-5.7921-3.4806-9.2727-9.2727-9.2727-5.77 0-9.2728 3.4837-9.2728 9.2222 0 8.8845 9.6407 12.775 16.159 6.5218zm-9.8465-3.9232c-2.6564-3.2008 1.2453-8.1178 4.7102-5.9357 3.4623 2.1804 2.2288 7.3877-1.75 7.3877-0.9654 0-2.2974-0.65338-2.9602-1.452z"/>
   </g>
  </g>
  <g id="g4757" stroke="#000" fill-opacity="0" transform="translate(-112.74 -754.01)">
   <rect id="rect4787" fill-opacity=".76777" ry=".051922" height=".18845" width="4.9251" stroke="#000" y="899.18" x="571.88" stroke-width="1.0262" fill="#800000"/>
  </g>
  <g id="g6061" stroke="#000b00" stroke-opacity=".55924" transform="translate(-112.74 -754.01)">
   <circle id="circle4870" stroke-width=".28813" fill-opacity=".58333" cy="896.68" cx="574.29" r=".50593"/>
   <circle id="ellipse4872" stroke-width=".13298" cy="899.22" cx="569.96" r=".23351"/>
  </g>
  <path id="path6151" stroke-linejoin="round" d="m441.45 207.7-0.0492-7.3192 4.1027-0.016-0.0164 3.3314 0.59078 1.4605 0.72207 1.0011 1.3128 0.919 1.2144 0.3938 24.485 0.016 1.0339-0.3774 0.73848-0.3774 0.90259-0.8042 0.6236-0.8861 0.45559-1.4223 0.024-3.2571 3.9807 0.01 0.003 7.3767z" fill-rule="evenodd" stroke="#0a4848" stroke-width="1.2" fill="#0a4848"/>
 </g>
</svg>
