<?xml version="1.0" encoding="UTF-8" standalone="no"?>
<!-- Created with Inkscape (http://www.inkscape.org/) -->
<svg id="svg2" xmlns:rdf="http://www.w3.org/1999/02/22-rdf-syntax-ns#" xmlns="http://www.w3.org/2000/svg" height="110.42mm" width="110.59mm" version="1.1" xmlns:cc="http://creativecommons.org/ns#" xmlns:dc="http://purl.org/dc/elements/1.1/" viewBox="0 0 391.84448 391.24877">
 <metadata id="metadata7">
  <rdf:RDF>
   <cc:Work rdf:about="">
    <dc:format>image/svg+xml</dc:format>
    <dc:type rdf:resource="http://purl.org/dc/dcmitype/StillImage"/>
    <dc:title/>
   </cc:Work>
  </rdf:RDF>
 </metadata>
 <g id="layer1" transform="translate(-111.53 -297.37)">
  <g id="g4268" transform="translate(-192.14 -70.453)" stroke="#000">
   <path id="path4282" d="m646.97 752.68c-7.524-7.8533-10.487-22.925-14.156-72.005-5.3742-71.885-11.494-114.17-21.901-151.32-5.6905-20.316-5.2619-25.622 1.7729-21.946 14.653 7.6585 55.7 47.708 74.392 72.585 6.8932 9.174 7.3842 10.686 6.5024 20.024-0.5246 5.555-1.8921 22.448-3.0389 37.54-2.8947 38.095-9.4747 94.779-11.876 102.31-2.6535 8.3224-14.099 18.228-21.062 18.228-3.3878 0-7.4054-2.046-10.633-5.4153zm16.207-219.7c-35.265-35.667-70.451-59.282-113.67-76.291-36.608-14.407-91.105-24.593-180.32-33.704-43.256-4.4176-50.366-5.9962-58.739-13.041-10.662-8.9711-6.1379-22.569 9.6033-28.867 19.037-7.6171 158.72-14.864 219.07-11.365 71.224 4.1297 107.65 13.28 126.03 31.662 19.157 19.157 29.4 63.859 29.4 128.3 0 25.911-0.31129 28.479-3.43 28.294-1.8865-0.11172-14.458-11.357-27.937-24.99z" stroke="#f93" stroke-width="1.96" fill="#f93"/>
  </g>
 </g>
</svg>
