<?xml version="1.0" encoding="UTF-8" standalone="no"?>
<!-- Created with Inkscape (http://www.inkscape.org/) -->
<svg id="svg4863" xmlns:rdf="http://www.w3.org/1999/02/22-rdf-syntax-ns#" xmlns="http://www.w3.org/2000/svg" height="100%" viewBox="0 0 600 580" width="100%" version="1.1" xmlns:cc="http://creativecommons.org/ns#" xmlns:xlink="http://www.w3.org/1999/xlink" xmlns:dc="http://purl.org/dc/elements/1.1/">
 <metadata id="metadata4867">
  <rdf:RDF>
   <cc:Work rdf:about="">
    <dc:format>image/svg+xml</dc:format>
    <dc:type rdf:resource="http://purl.org/dc/dcmitype/StillImage"/>
    <dc:title/>
   </cc:Work>
  </rdf:RDF>
 </metadata>
 <defs id="defs4869">
  <linearGradient id="linearGradient9453" y2="31000" gradientUnits="userSpaceOnUse" x2="18000" gradientTransform="matrix(.014430 .0060158 -.0052776 .012659 223.76 103.19)" y1="2700" x1="-1800">
   <stop id="stop4872" stop-color="#051729" offset="0"/>
   <stop id="stop4874" stop-color="#041329" stop-opacity=".80392" offset=".4"/>
   <stop id="stop4876" stop-color="#01072a" stop-opacity="0" offset="1"/>
  </linearGradient>
  <clipPath id="clipPath7467">
   <rect id="rect4879" stroke-linejoin="round" ry="13" height="34" width="64" stroke="#000" y="1100" x="420" stroke-width=".5"/>
  </clipPath>
 </defs>
 <g id="g6822" stroke="#FFF" stroke-miterlimit="0" fill="#FFF">
  <path id="path4881" stroke-width=".064" d="m38 320a0.36 0.41 0 0 1 -0.72 0 0.36 0.41 0 1 1 0.72 0z"/>
  <path id="path4883" stroke-width=".15726" d="m140 400a0.9 0.9 0 0 1 -1.8 0 0.9 0.9 0 1 1 1.8 0z"/>
  <path id="path4885" stroke-width=".078584" d="m120 130z"/>
  <path id="path10387" d="m130 320a0.36 0.52 0 0 1 -0.73 0 0.36 0.52 0 1 1 0.73 0z" stroke="#FFF" stroke-miterlimit="0" stroke-width=".076056" fill="#FFF"/>
  <path id="path4892" stroke-width=".23589" d="m94 330a1.4 1.4 0 0 1 -2.6 0 1.4 1.4 0 1 1 2.6 0z"/>
  <path id="path4894" stroke-width=".11795" d="m150 340a0.66 0.67 56 1 1 -0.74 -1.1 0.66 0.67 56 0 1 0.74 1.1z"/>
  <path id="path4898" stroke-width=".076056" d="m200 330z"/>
  <path id="path4900" stroke-width=".15726" d="m400 70a0.89 0.89 0 0 1 1.2 1.4 0.89 0.89 0 0 1 0 -0.9z"/>
  <path id="path4902" stroke-width=".076056" d="m190 390z"/>
  <path id="path4904" stroke-width=".07863" d="m190 330a0.44 0.44 0 1 1 -0.002 0.88z"/>
  <path id="path4906" stroke-width=".076056" d="m100 370a0.38 0.52 51 0 1 -0.9 0 0.38 0.52 51 1 1 0.9 0z"/>
  <path id="path4908" stroke-width=".038994" d="m38 360a0.22 0.22 0 1 1 0.36 0 0.22 0.22 0 0 1 -0.36 0z"/>
  <path id="path4910" stroke-width=".038994" d="m470 340z"/>
  <path id="path4912" stroke-width=".11795" d="m460 76a0.67 0.66 45 1 1 0.9 -0.9 0.67 0.66 45 0 1 -0.9 0.9z"/>
  <path id="path4914" stroke-width=".038994" d="m100 330z"/>
  <path id="path4916" stroke-width=".078479" d="m260 230a0.44 0.44 0 0 1 0.88 0.09z"/>
  <path id="path4918" stroke-width=".076056" d="m160 150a0.37 0.5 5.3 0 1 0.73 0.075z"/>
  <path id="path10423" stroke-width=".076056" d="m82 290a0.37 0.5 5.3 1 1 0.73 0.075 0.45 0.61 5.3 0 1 -0.9 0z"/>
  <g id="g4165" stroke-width=".038994">
   <path id="path4921" d="m330 390a0.22 0.22 0 1 1 0.31 -0.32z"/>
   <path id="path4923" d="m290 360z"/>
   <path id="path4925" d="m220 330z"/>
  </g>
  <path id="path4927" stroke-width=".076056" d="m190 350a0.5 0.37 62 1 1 0.64 -0.35z"/>
  <g id="g6846" stroke-width=".038994">
   <path id="path4929" d="m160 370a0.22 0.22 0 0 1 0.081 -0.43z"/>
   <path id="path4931" d="m180 410a0.22 0.22 0 0 1 0.081 -0.43z"/>
   <path id="path4933" d="m400 350a0.22 0.22 0 1 1 -0.42 0.13z"/>
  </g>
  <path id="path4937" stroke-width=".038994" d="m110 380z"/>
  <path id="path4939" stroke-width=".19658" d="m170 270a1.1 1.1 0 1 1 0.58 -2.2 1.1 1.1 0 0 1 -0.58 2.2z"/>
  <path id="path4941" stroke-width=".038994" d="m130 330a0.22 0.22 0 0 1 0.14 -0.41z"/>
  <path id="path4943" stroke-width=".07863" d="m380 120a0.44 0.44 0 0 1 -0.88 0 0.44 0.44 0 1 1 0.88 0z"/>
  <path id="path4945" stroke-width=".078479" d="m48 220a0.45 0.45 0 0 1 -0.9 0 0.45 0.45 0 1 1 0.9 0z"/>
  <path id="path4947" stroke-width=".076056" d="m120 250a0.38 0.52 51 0 1 -0.9 0 0.38 0.52 51 1 1 0.9 0z"/>
  <g id="g4181" stroke-width=".038994">
   <path id="path4949" d="m97 260a0.22 0.22 0 0 1 -0.44 0 0.22 0.22 0 1 1 0.44 0z"/>
   <path id="path4951" d="m46 250a0.22 0.22 0 0 1 -0.44 0 0.22 0.22 0 1 1 0.44 0z"/>
   <path id="path4953" d="m250 260a0.22 0.22 0 0 1 -0.0009 0.44z"/>
  </g>
  <path id="path4955" stroke-width=".076056" d="m160 240z"/>
  <path id="path4957" stroke-width=".038994" d="m260 300a0.22 0.22 0 0 1 -0.44 0 0.22 0.22 0 1 1 0.44 0z"/>
  <path id="path10465" d="m66 270a0.38 0.52 51 0 1 -0.9 0 0.38 0.52 51 1 1 0.9 0z" stroke="#FFF" stroke-miterlimit="0" stroke-width=".076056" fill="#FFF"/>
  <path id="path4960" stroke-width=".076056" d="m210 270a0.5 0.37 52 1 1 -0.57 0.46z"/>
  <path id="path4962" stroke-width=".038994" d="m160 260a0.22 0.22 0 1 1 0.39 0.22z"/>
  <path id="path4964" stroke-width=".078479" d="m170 300a0.44 0.44 0 1 1 0.31 0.83z"/>
  <path id="path4966" stroke-width=".07863" d="m330 180a0.44 0.44 0 0 1 0.86 -0.23z"/>
  <path id="path4968" stroke-width=".038994" d="m62 370z"/>
  <path id="path4970" stroke-width=".038994" d="m230 280a0.22 0.22 0 0 1 0.099 -0.42z"/>
  <path id="path4972" stroke-width=".078479" d="m36 250a0.44 0.44 0 1 1 -0.54 0 0.44 0.44 0 0 1 0.54 0z"/>
  <path id="path4974" stroke-width=".038994" d="m310 260z"/>
  <path id="path4976" stroke-width=".038994" d="m160 98z"/>
  <path id="path4978" stroke-width=".07863" d="m150 260a0.44 0.44 0 0 1 0.86 -0.23z"/>
  <path id="path4980" stroke-width=".078479" d="m130 56a0.45 0.45 0 1 1 0 -0.9 0.45 0.45 0 0 1 0 0.9z"/>
  <g id="g6874" stroke-width=".038994">
   <path id="path4982" d="m200 190z"/>
   <path id="path4984" d="m170 130z"/>
   <path id="path4986" d="m300 250a0.22 0.22 0 0 1 -0.44 0 0.22 0.22 0 1 1 0.44 0z"/>
   <path id="path10497" d="m190 170a0.22 0.22 0 0 1 -0.01 0.44z" stroke="#FFF" stroke-miterlimit="0" stroke-width=".038994" fill="#FFF"/>
  </g>
  <path id="path4989" stroke-width=".078479" d="m230 170a0.44 0.44 0 0 1 -0.51 -0.72 0.44 0.44 0 1 1 0.51 0.72z"/>
  <path id="path4991" stroke-width=".07863" d="m180 160a0.44 0.44 0 0 1 0.59 0.65z"/>
 </g>
 <g id="g6882">
  <text id="text4993" style="word-spacing:0px;letter-spacing:0px" xml:space="preserve" font-size="40px" line-height="125%" y="915.52228" x="440.44522" font-family="Sans"><tspan id="tspan4995" y="915.52228" x="440.44522"/></text>
  <text id="text4997" style="word-spacing:0px;letter-spacing:0px" xml:space="preserve" font-size="13px" line-height="125%" y="1218.1722" x="336.94339" font-family="Arial Hebrew"><tspan id="tspan4999" y="1218.1722" x="336.94339"/></text>
  <text id="text5001" style="word-spacing:0px;letter-spacing:0px" xml:space="preserve" font-size="6px" line-height="125%" y="1228.4059" x="335.64749" font-family="Krungthep"><tspan id="tspan5003" y="1228.4059" x="335.64749"/></text>
 </g>
 <g id="g4214" stroke="#FFF" stroke-miterlimit="0">
  <g id="g6890" fill="#FFF">
   <g id="g4217" stroke-width=".038994">
    <g id="g6892">
     <path id="path5005" d="m100 230a0.22 0.22 0 0 1 -0.44 0 0.22 0.22 0 1 1 0.44 0z"/>
     <path id="path5007" d="m67 230a0.22 0.22 0 0 1 -0.44 0 0.22 0.22 0 1 1 0.44 0z"/>
     <path id="path5009" d="m56 240a0.22 0.22 0 0 1 -0.44 0 0.22 0.22 0 1 1 0.44 0z"/>
    </g>
    <path id="path5011" d="m160 260a0.22 0.22 0 1 1 0.39 0.22z"/>
    <g id="g6898">
     <path id="path5013" d="m69 240a0.22 0.22 0 0 1 -0.44 0 0.22 0.22 0 1 1 0.44 0z"/>
     <path id="path5015" d="m51 170z"/>
     <path id="path5017" d="m97 200z"/>
     <path id="path5019" d="m110 190z"/>
     <path id="path5021" d="m95 230z"/>
     <path id="path5023" d="m180 240a0.22 0.22 0 1 1 0.08 -0.43z"/>
    </g>
    <path id="path10535" d="m220 190a0.22 0.22 0 1 1 0.43 0.082z" stroke="#FFF" stroke-miterlimit="0" stroke-width=".038994" fill="#FFF"/>
    <path id="path5026" d="m160 110a0.22 0.22 0 1 1 0.43 0.082z"/>
    <path id="path10539" d="m210 210a0.22 0.22 0 1 1 0.28 -0.34z" stroke="#FFF" stroke-miterlimit="0" stroke-width=".038994" fill="#FFF"/>
    <g id="g6909">
     <path id="path5029" d="m220 180a0.22 0.22 0 1 1 0.083 -0.43z"/>
     <path id="path10543" d="m170 190a0.22 0.22 0 1 1 0.083 -0.43z" stroke="#FFF" stroke-miterlimit="0" stroke-width=".038994" fill="#FFF"/>
     <path id="path10545" d="m190 130a0.22 0.22 0 1 1 0.083 -0.43z" stroke="#FFF" stroke-miterlimit="0" stroke-width=".038994" fill="#FFF"/>
     <path id="path5033" d="m150 47z"/>
     <path id="path5035" d="m120 330z"/>
     <path id="path5037" d="m91 280z"/>
    </g>
   </g>
   <path id="path5039" stroke-width=".076056" d="m90 310z"/>
   <path id="path5041" stroke-width=".078479" d="m83 270z"/>
   <g id="g4243" stroke-width=".038994">
    <path id="path5043" d="m120 280z"/>
    <path id="path5045" d="m430 270z"/>
    <g id="g6921">
     <path id="path5047" d="m120 310z"/>
     <path id="path5049" d="m170 280a0.22 0.22 0 0 1 0.36 -0.24 0.22 0.22 0 0 1 -0.36 0.24z"/>
     <path id="path5051" d="m170 300a0.22 0.22 0 0 1 0.36 -0.24 0.22 0.22 0 1 1 -0.36 0.24z"/>
    </g>
   </g>
   <path id="path5053" stroke-width=".11795" d="m110 240a0.68 0.68 0 0 1 -1.4 0 0.68 0.68 0 1 1 1.4 0z"/>
   <path id="path10573" stroke-width=".076056" d="m81 220a0.38 0.52 51 0 1 -0.9 0 0.38 0.52 51 1 1 0.9 0z"/>
   <path id="path5060" stroke-width=".078479" d="m31 210a0.44 0.44 0 1 1 -0.51 0 0.44 0.44 0 0 1 0.51 0z"/>
   <path id="path5064" stroke-width=".11795" d="m70 200a0.68 0.68 0 0 1 -1.4 0 0.68 0.68 0 1 1 1.4 0z"/>
  </g>
  <path id="path5066" stroke-width=".19824" fill="#d45500" d="m110 72a1.1 1.1 0 0 1 -2.2 0 1.1 1.1 0 1 1 2.2 0z"/>
  <g id="g6931" fill="#FFF">
   <path id="path5068" stroke-width=".07863" d="m65 150z"/>
   <path id="path5070" stroke-width=".047178" d="m41 38a0.45 0.46 0 0 1 -0.9 0 0.45 0.46 0 1 1 0.9 0z"/>
   <path id="path10587" d="m69 120a0.49 0.49 0 1 1 0 -0.9 0.49 0.49 0 0 1 0 0.9z" stroke="#FFF" stroke-miterlimit="0" stroke-width=".086493" fill="#FFF"/>
   <path id="path5073" stroke-width=".086493" d="m60 100a0.49 0.49 0 1 1 0 -0.9 0.49 0.49 0 0 1 0 0.9z"/>
  </g>
  <path id="path5075" stroke-width=".11512" fill="#00F" d="m49 60a0.66 0.66 0 0 1 0 -0.9 0.66 0.66 0 1 1 0 0.9z"/>
  <g id="g6938" fill="#FFF">
   <path id="path5077" stroke-width=".047178" d="m73 48a0.45 0.46 0 0 1 -0.9 0 0.45 0.46 0 1 1 0.9 0z"/>
   <path id="path5079" stroke-width=".095142" d="m90 61a0.54 0.53 45 0 1 0 -0.9 0.54 0.53 45 1 1 0 0.9z"/>
   <path id="path5081" stroke-width=".07863" d="m75 130z"/>
   <path id="path5083" stroke-width=".047178" d="m74 49a0.45 0.46 0 0 1 -0.9 0 0.45 0.46 0 1 1 0.9 0z"/>
   <path id="path10601" stroke-width=".047178" d="m73 50a0.45 0.46 0 0 1 -0.9 0 0.45 0.46 0 1 1 0.9 0z"/>
  </g>
  <g id="g6945">
   <path id="path5086" d="m500 250a1.1 1.1 0 1 1 1.4 -1.8 1.1 1.1 0 0 1 -1.4 1.8z" stroke-width=".19566" fill="#e3dbdb"/>
   <path id="path5088" d="m540 150a0.79 0.79 0 0 1 -1.4 -0.58 0.79 0.79 0 1 1 1.4 0.58z" stroke-width=".14087" fill="#FFF"/>
   <path id="path5090" d="m560 170a1.4 1.4 0 1 1 1.6 -2.2 1.4 1.4 0 0 1 -1.6 2.2z" stroke-width=".23674" fill="#FFF"/>
   <path id="path10619" d="m520 240a1.1 1.1 0 1 1 1.4 -1.8 1.1 1.1 0 0 1 -1.4 1.8z" stroke="#FFF" stroke-miterlimit="0" stroke-width=".19566" fill="#F60"/>
   <path id="path5093" d="m550 150a0.79 0.79 0 0 1 -1.4 -0.58 0.79 0.79 0 1 1 1.4 0.58z" stroke-width=".14087" fill="#FFF"/>
   <path id="path5095" d="m540 150a0.79 0.79 0 0 1 -1.4 -0.58 0.79 0.79 0 1 1 1.4 0.58z" stroke-width=".14087" fill="#FF0"/>
  </g>
  <g id="g6953" fill="#FFF">
   <g id="g6955" stroke-width=".038994">
    <path id="path5097" d="m440 95a0.22 0.22 0 0 1 -0.44 0 0.22 0.22 0 1 1 0.44 0z"/>
    <path id="path5099" d="m460 70a0.22 0.22 0 0 1 -0.44 0 0.22 0.22 0 1 1 0.44 0z"/>
    <path id="path5101" d="m100 100z"/>
    <path id="path5103" d="m110 110z"/>
    <path id="path5105" d="m130 110z"/>
    <path id="path5107" d="m35 97a0.22 0.22 0 0 1 -0.45 0 0.22 0.22 0 1 1 0.45 0z"/>
    <path id="path5109" d="m400 52a0.22 0.22 0 0 1 -0.44 0 0.22 0.22 0 1 1 0.44 0z"/>
    <path id="path5111" d="m390 62a0.22 0.22 0 0 1 -0.44 0 0.22 0.22 0 1 1 0.44 0z"/>
    <path id="path5113" d="m190 91a0.22 0.22 0 0 1 -0.44 0 0.22 0.22 0 1 1 0.44 0z"/>
    <path id="path5115" d="m420 71z"/>
   </g>
   <path id="path5119" stroke-width=".11795" d="m130 300a0.68 0.68 0 0 1 -1.4 0 0.68 0.68 0 1 1 1.4 0z"/>
   <path id="path5121" stroke-width=".038994" d="m440 79z"/>
   <path id="path5123" stroke-width=".11795" d="m140 220a0.66 0.67 63 0 1 -0.6 -1.2 0.66 0.67 63 0 1 0.6 1.2z"/>
   <path id="path10653" d="m150 170a0.5 0.37 24 0 1 0.3 -0.67z" stroke="#FFF" stroke-miterlimit="0" stroke-width=".076056" fill="#FFF"/>
   <path id="path5128" stroke-width=".11795" d="m160 150a0.66 0.67 63 0 1 -0.6 -1.2 0.66 0.67 63 1 1 0.6 1.2z"/>
   <path id="path5130" stroke-width=".076056" d="m260 180z"/>
   <path id="path5132" stroke-width=".23589" d="m170 76a1.4 1.4 0 1 1 0 -1.8 1.4 1.4 0 0 1 0 1.8z"/>
   <path id="path5136" stroke-width=".076056" d="m210 140a0.5 0.37 44 0 1 0.51 -0.52z"/>
   <path id="path5138" stroke-width=".038994" d="m260 150z"/>
   <path id="path5140" stroke-width=".038994" d="m210 47z"/>
   <path id="path5144" stroke-width=".064" d="m160 140z"/>
   <path id="path10677" d="m210 180a0.22 0.22 0 1 1 0.4 -0.17z" stroke="#FFF" stroke-miterlimit="0" stroke-width=".038994" fill="#FFF"/>
  </g>
  <path id="path5147" stroke-width=".038994" fill="url(#linearGradient9453)" d="m230 110z"/>
  <g id="g6980" fill="#FFF">
   <g id="g6982" stroke-width=".038994">
    <path id="path5149" d="m260 53z"/>
    <path id="path5151" d="m240 56z"/>
    <path id="path5153" d="m250 79z"/>
   </g>
   <g id="g6987" stroke-width=".038994">
    <path id="path5155" d="m250 140z"/>
    <path id="path5157" d="m240 130z"/>
    <path id="path5159" d="m240 150a0.22 0.22 0 1 1 0.43 -0.086z"/>
    <path id="path5161" d="m300 67a0.22 0.22 0 1 1 0.43 0.047z"/>
   </g>
   <path id="path5163" stroke-width=".064" d="m230 99a0.43 0.49 53 1 1 0 -0.9 0.43 0.49 53 0 1 0 0.9z"/>
   <path id="path5165" stroke-width=".11795" d="m260 53a0.67 0.68 53 1 1 0 -0.9 0.67 0.68 53 0 1 0 0.9z"/>
   <path id="path5169" stroke-width=".11795" d="m73 94a0.68 0.67 19 0 1 0 -0.9 0.68 0.67 19 0 1 0 0.9z"/>
   <path id="path5171" stroke-width=".076056" d="m270 120a0.37 0.5 59 1 1 0.38 0.63z"/>
   <path id="path5173" stroke-width=".19658" d="m380 31a1.1 1.1 0 1 1 2.1 -0.8 1.1 1.1 0 0 1 -2.1 0.8z"/>
   <path id="path5175" stroke-width=".038994" d="m240 83z"/>
   <path id="path5179" stroke-width=".076056" d="m330 130a0.5 0.37 14 0 1 0.18 -0.71 0.5 0.37 14 1 1 -0.18 0.71z"/>
   <path id="path5181" stroke-width=".038994" d="m310 110z"/>
   <path id="path5183" stroke-width=".038994" d="m280 68z"/>
   <path id="path5185" stroke-width=".076056" d="m360 140a0.5 0.37 14 0 1 0.18 -0.71 0.5 0.37 14 1 1 -0.18 0.71z"/>
   <path id="path5189" stroke-width=".038994" d="m350 150a0.22 0.22 0 0 1 0.06 0.43z"/>
   <path id="path5191" stroke-width=".078479" d="m570 230a0.44 0.44 0 1 1 -0.48 0.75z"/>
   <path id="path5193" stroke-width=".078479" d="m280 61a0.45 0.45 0 1 1 0 -0.9 0.45 0.45 0 0 1 0 0.9z"/>
   <path id="path5195" stroke-width=".07863" d="m340 150a0.44 0.44 0 1 1 0.69 0.55z"/>
   <g id="g4324" stroke-width=".038994">
    <g id="g7007">
     <path id="path5197" d="m350 99z"/>
     <path id="path5199" d="m320 70z"/>
     <path id="path5201" d="m300 68z"/>
    </g>
    <path id="path5203" d="m590 190a0.22 0.22 0 1 1 0.06 0.43z"/>
    <g id="g7013">
     <path id="path5205" d="m310 82z"/>
     <path id="path5207" d="m360 77z"/>
     <path id="path5209" d="m330 170a0.22 0.22 0 1 1 0.4 -0.19z"/>
     <path id="path5211" d="m340 92z"/>
    </g>
    <path id="path5213" d="m230 74z"/>
    <path id="path5215" d="m290 120z"/>
   </g>
   <path id="path5217" stroke-width=".076056" d="m260 140a0.5 0.37 60 0 1 0.63 -0.36 0.5 0.37 60 1 1 -0.63 0.36z"/>
   <path id="path5219" stroke-width=".078479" d="m290 110z"/>
   <g id="g4340" stroke-width=".038994">
    <path id="path5221" d="m310 150a0.22 0.22 0 0 1 0.068 -0.43z"/>
    <path id="path5223" d="m300 140a0.22 0.22 0 0 1 0.068 -0.43z"/>
    <g id="g7025">
     <path id="path5225" d="m290 150a0.22 0.22 0 1 1 0.41 0.14z"/>
     <path id="path5227" d="m580 210a0.22 0.22 0 0 1 0.41 0.14z"/>
     <path id="path5229" d="m380 260a0.22 0.22 0 1 1 0.41 0.14z"/>
    </g>
   </g>
   <path id="path5235" stroke-width=".076056" d="m340 72a0.61 0.44 14 1 1 0 -0.9 0.61 0.44 14 0 1 0 0.9z"/>
   <path id="path5237" stroke-width=".078479" d="m310 29a0.44 0.44 0 0 1 0 -0.85 0.44 0.44 0 1 1 0 0.85z"/>
   <path id="path5239" stroke-width=".11795" d="m320 91a0.67 0.68 53 1 1 0 -0.9 0.67 0.68 53 0 1 0 0.9z"/>
   <path id="path5241" stroke-width=".11795" d="m350 56a0.67 0.68 53 1 1 0 -0.9 0.67 0.68 53 0 1 0 0.9z"/>
   <path id="path5247" stroke-width=".07863" d="m490 62a0.45 0.45 0 0 1 0 0.9 0.45 0.45 0 1 1 0 -0.9z"/>
   <path id="path5249" stroke-width=".15726" d="m470 72z"/>
   <path id="path5251" stroke-width=".19658" d="m440 41z"/>
   <path id="path5253" stroke-width=".11795" d="m490 36a0.68 0.68 38 1 1 0 -1.1 0.68 0.68 38 0 1 0 1.1z"/>
   <path id="path5255" stroke-width=".11795" d="m510 86a0.68 0.68 68 0 1 0 -0.9 0.68 0.68 68 1 1 0 0.9z"/>
   <path id="path5257" stroke-width=".076056" d="m530 71a0.37 0.5 18 0 1 0.69 0.23z"/>
   <path id="path5259" stroke-width=".11795" d="m520 140a0.67 0.66 12 1 1 0.28 -1.3 0.67 0.66 12 0 1 -0.28 1.3z"/>
   <path id="path5261" stroke-width=".064" d="m570 77a0.5 0.44 28 1 1 0 -0.9 0.5 0.44 28 0 1 0 0.9z"/>
   <path id="path5263" stroke-width=".078479" d="m140 390a0.44 0.44 0 0 1 0.69 -0.55z"/>
   <g id="g7043" stroke-width=".076056">
    <path id="path5265" d="m120 500a0.5 0.37 51 1 1 0.58 -0.45 0.5 0.37 51 0 1 -0.58 0.45z"/>
    <path id="path5267" d="m81 410a0.56 0.41 51 1 1 0.9 0 0.56 0.41 51 0 1 -0.9 0z"/>
    <path id="path5269" d="m85 550a0.38 0.52 52 0 1 -0.9 0 0.38 0.52 52 1 1 0.9 0z"/>
   </g>
   <path id="path5271" stroke-width=".078479" d="m58 510a0.45 0.45 0 0 1 -0.9 0 0.45 0.45 0 1 1 0.9 0z"/>
   <path id="path5273" stroke-width=".038994" d="m130 430a0.22 0.22 0 0 1 0.43 0.082z"/>
   <path id="path5275" stroke-width=".038994" d="m150 550a0.22 0.22 0 0 1 0.34 0.28z"/>
   <path id="path5277" stroke-width=".076056" d="m45 430a0.37 0.5 6.6 1 1 0.73 0.09 0.45 0.61 6.6 0 1 -0.9 0z"/>
   <path id="path5279" stroke-width=".11795" d="m110 450z"/>
   <path id="path5281" stroke-width=".15726" d="m170 530a0.88 0.88 0 0 1 -1.4 -1.1 0.88 0.88 0 1 1 1.4 1.1z"/>
   <path id="path5283" stroke-width=".076056" d="m140 420a0.5 0.37 51 1 1 0.58 -0.45 0.5 0.37 51 0 1 -0.58 0.45z"/>
   <path id="path5285" stroke-width=".076056" d="m180 500a0.37 0.5 24 1 1 0.67 0.31z"/>
   <path id="path5287" stroke-width=".064" d="m220 500a0.39 0.34 23 0 1 0.26 -0.62z"/>
   <path id="path5289" stroke-width=".038994" d="m170 550a0.22 0.22 0 1 1 0.17 0.4z"/>
   <path id="path5291" stroke-width=".076056" d="m430 69a0.37 0.5 5.3 1 1 0.73 0.075z"/>
   <path id="path5293" stroke-width=".076056" d="m450 110a0.41 0.56 51 1 1 0 -0.9 0.41 0.56 51 0 1 0 0.9z"/>
   <path id="path5295" stroke-width=".038994" d="m440 38a0.22 0.22 0 0 1 -0.44 0 0.22 0.22 0 1 1 0.44 0z"/>
   <path id="path5297" stroke-width=".076056" d="m400 140z"/>
   <g id="g7062" stroke-width=".038994">
    <path id="path5299" d="m480 110a0.22 0.22 0 0 1 -0.44 0 0.22 0.22 0 1 1 0.44 0z"/>
    <path id="path5301" d="m400 150a0.22 0.22 0 0 1 -0.44 0 0.22 0.22 0 1 1 0.44 0z"/>
    <path id="path5303" d="m390 160a0.22 0.22 0 0 1 -0.44 0 0.22 0.22 0 1 1 0.44 0z"/>
    <path id="path5305" d="m350 310a0.22 0.22 0 0 1 -0.44 0 0.22 0.22 0 1 1 0.44 0z"/>
    <path id="path5307" d="m430 150a0.22 0.22 0 1 1 0.08 -0.43z"/>
   </g>
   <path id="path5309" stroke-width=".038994" d="m420 200z"/>
   <path id="path5311" stroke-width=".076056" d="m440 88a0.61 0.45 6.3 1 1 0 -0.9 0.61 0.45 6.3 0 1 0 0.9z"/>
   <path id="path5313" stroke-width=".078479" d="m420 140a0.44 0.44 0 0 1 0.15 -0.87z"/>
   <path id="path5315" stroke-width=".038994" d="m450 200z"/>
   <path id="path5317" stroke-width=".038994" d="m460 57z"/>
   <path id="path5319" stroke-width=".11795" d="m440 130a0.68 0.68 0 0 1 -1.4 0 0.68 0.68 0 1 1 1.4 0z"/>
   <path id="path5321" stroke-width=".076056" d="m200 420z"/>
   <path id="path5323" stroke-width=".038994" d="m220 440a0.22 0.22 0 0 1 -0.36 0.25 0.22 0.22 0 1 1 0.36 -0.25z"/>
   <path id="path5325" stroke-width=".076056" d="m250 460z"/>
   <g id="g4394" stroke-width=".038994">
    <g id="g7078">
     <path id="path5327" d="m190 460a0.22 0.22 0 0 1 -0.36 0.25 0.22 0.22 0 1 1 0.36 -0.25z"/>
     <path id="path5329" d="m210 490a0.22 0.22 0 0 1 -0.36 0.25 0.22 0.22 0 1 1 0.36 -0.25z"/>
     <path id="path5331" d="m230 490a0.22 0.22 0 0 1 -0.36 0.25 0.22 0.22 0 1 1 0.36 -0.25z"/>
     <path id="path5333" d="m230 470a0.22 0.22 0 0 1 -0.36 0.25 0.22 0.22 0 1 1 0.36 -0.25z"/>
    </g>
    <path id="path5335" d="m190 460a0.22 0.22 0 1 1 -0.18 -0.4 0.22 0.22 0 0 1 0.18 0.4z"/>
    <path id="path5337" d="m250 430z"/>
   </g>
   <path id="path5339" stroke-width=".076056" d="m260 420z"/>
   <path id="path5341" stroke-width=".078479" d="m240 440z"/>
   <path id="path5343" stroke-width=".038994" d="m220 410z"/>
   <path id="path5345" stroke-width=".038994" d="m230 420z"/>
   <path id="path5347" stroke-width=".11795" d="m210 460a0.68 0.67 55 0 1 -1.1 0.76 0.68 0.67 55 1 1 1.1 -0.76z"/>
  </g>
 </g>
 <g id="g7091">
  <rect id="rect5349" stroke-linejoin="round" transform="matrix(.73599 0 0 .78186 104.88 275.68)" clip-path="url(#clipPath7467)" ry="13" height="26" width="45" stroke="#000" y="1200" x="430" stroke-width=".5"/>
  <path id="path5351" d="m260 110a1.1 1.1 0 0 1 -2.2 0 1.1 1.1 0 1 1 2.2 0z" stroke="#FFF" stroke-miterlimit="0" stroke-width=".19824" fill="#d45500"/>
  <path id="path5353" d="m250 61a0.66 0.66 0 0 1 0 -0.9 0.66 0.66 0 1 1 0 0.9z" stroke="#FFF" stroke-miterlimit="0" stroke-width=".11512" fill="#00F"/>
 </g>
 <g id="g7096" stroke="#FFF" stroke-miterlimit="0" fill="#FFF">
  <path id="path5355" stroke-width=".038994" d="m55 100z"/>
  <path id="path5357" stroke-width=".038994" d="m64 130z"/>
  <path id="path5359" stroke-width=".064" d="m53 150z"/>
  <path id="path5361" stroke-width=".076056" d="m67 130z"/>
  <path id="path5363" stroke-width=".038994" d="m57 130z"/>
  <path id="path5365" stroke-width=".038994" d="m52 120z"/>
 </g>
 <g id="g7104" fill="#f60">
  <use id="use10909" xlink:href="#path10619" transform="translate(6.9121 -18.11)" height="580" width="600" y="0" x="0" fill="#ff6600"/>
  <use id="use5368" xlink:href="#use10909" transform="translate(-6.2209 1.2442)" height="580" width="600" y="0" x="0"/>
  <use id="use5370" xlink:href="#path10619" transform="matrix(.66085 0 0 .71737 186.66 46.24)" height="580" width="600" y="0" x="0"/>
 </g>
 <path id="path5372" d="m520 160a1.6 1.6 0 1 1 1.9 -2.6 1.6 1.6 0 0 1 -1.9 2.6z" stroke="#FFF" stroke-miterlimit="0" stroke-width=".28132" fill="#FFF"/>
 <path id="path5374" d="m540 260a1.9 1.9 0 1 1 2.3 -3.1 1.9 1.9 0 0 1 -2.3 3.1z" stroke="#FFF" stroke-miterlimit="0" stroke-width=".33809" fill="#e3dbdb"/>
 <use id="use11441" xlink:href="#path10387" transform="translate(46.726 -188.56)" height="580" width="600" y="0" x="0"/>
 <use id="use11449" xlink:href="#path10465" transform="translate(46.726 -188.56)" height="580" width="600" y="0" x="0"/>
 <use id="use5381" xlink:href="#path10587" transform="translate(88.147 -15.022)" height="580" width="600" y="0" x="0"/>
 <path id="path5387" d="m180 14a0.45 0.45 0 0 1 -0.9 0 0.45 0.45 0 1 1 0.9 0z" stroke="#FFF" stroke-miterlimit="0" stroke-width=".078479" fill="#FFF"/>
 <path id="path5389" d="m260 50a0.38 0.52 51 0 1 -0.9 0 0.38 0.52 51 1 1 0.9 0z" stroke="#FFF" stroke-miterlimit="0" stroke-width=".076056" fill="#FFF"/>
 <use id="use5395" xlink:href="#path10497" transform="translate(-128.29 -71.056)" height="580" width="600" y="0" x="0"/>
 <use id="use5397" xlink:href="#path10535" transform="translate(-128.29 -71.056)" height="580" width="600" y="0" x="0"/>
 <use id="use5399" xlink:href="#path10539" transform="translate(-128.29 -71.056)" height="580" width="600" y="0" x="0"/>
 <use id="use5401" xlink:href="#path10543" transform="translate(-128.29 -71.056)" height="580" width="600" y="0" x="0"/>
 <use id="use5403" xlink:href="#path10545" transform="translate(-128.29 -71.056)" height="580" width="600" y="0" x="0"/>
 <use id="use5405" xlink:href="#path10653" transform="translate(-128.29 -71.056)" height="580" width="600" y="0" x="0"/>
 <use id="use5407" xlink:href="#path10677" transform="translate(-128.29 -71.056)" height="580" width="600" y="0" x="0"/>
 <g id="g7123" stroke="#FFF" stroke-miterlimit="0" fill="#FFF">
  <path id="path5409" stroke-width=".038994" d="m130 92a0.22 0.22 0 0 1 0.43 0.059z"/>
  <path id="path5411" stroke-width=".038994" d="m39 170a0.22 0.22 0 0 1 -0.0099 0.44z"/>
  <path id="path5413" stroke-width=".07863" d="m30 160a0.44 0.44 0 0 1 0.59 0.65z"/>
  <path id="path5415" stroke-width=".038994" d="m57 210a0.22 0.22 0 1 1 0.28 -0.34z"/>
  <path id="path5417" stroke-width=".038994" d="m66 180a0.22 0.22 0 1 1 0.083 -0.43z"/>
  <path id="path5419" stroke-width=".076056" d="m57 140a0.5 0.37 44 0 1 0.51 -0.52z"/>
  <g id="g4444" stroke-width=".038994">
   <path id="path5421" d="m57 180a0.22 0.22 0 0 1 0.4 -0.17z"/>
   <path id="path5423" d="m84 150a0.22 0.22 0 1 1 0.43 -0.086z"/>
   <path id="path5425" d="m340 35a0.22 0.22 0 0 1 -0.01 0.44z"/>
  </g>
  <path id="path5427" stroke-width=".07863" d="m330 26a0.44 0.44 0 0 1 0.59 0.65z"/>
  <g id="g4450" stroke-width=".038994">
   <path id="path5429" d="m350 71a0.22 0.22 0 1 1 0.28 -0.34z"/>
   <path id="path5431" d="m360 44a0.22 0.22 0 1 1 0.083 -0.43z"/>
   <path id="path5433" d="m350 44a0.22 0.22 0 0 1 0.4 -0.17z"/>
   <path id="path5435" d="m380 17a0.22 0.22 0 1 1 0.43 -0.086z"/>
   <path id="path5437" d="m530 29a0.22 0.22 0 0 1 -0.45 0 0.22 0.22 0 1 1 0.45 0z"/>
  </g>
  <path id="path5439" stroke-width=".11795" d="m570 26a0.68 0.67 19 0 1 0 -0.9 0.68 0.67 19 0 1 0 0.9z"/>
 </g>
 <use id="use5441" xlink:href="#path10535" transform="translate(363.3 -138.52)" height="580" width="600" y="0" x="0"/>
 <use id="use5443" xlink:href="#path10539" transform="translate(363.3 -138.52)" height="580" width="600" y="0" x="0"/>
 <use id="use5445" xlink:href="#path10543" transform="translate(363.3 -138.52)" height="580" width="600" y="0" x="0"/>
 <use id="use5447" xlink:href="#path10653" transform="translate(363.3 -138.52)" height="580" width="600" y="0" x="0"/>
 <use id="use5449" xlink:href="#path10677" transform="translate(363.3 -138.52)" height="580" width="600" y="0" x="0"/>
 <g id="g7146" stroke="#FFF" stroke-miterlimit="0" fill="#FFF">
  <path id="path5451" stroke-width=".038994" d="m530 110a0.22 0.22 0 0 1 -0.01 0.44z"/>
  <path id="path5453" stroke-width=".07863" d="m520 96a0.44 0.44 0 0 1 0.59 0.65z"/>
  <g id="g4466" stroke-width=".038994">
   <path id="path5455" d="m560 110a0.22 0.22 0 0 1 0.083 -0.43z"/>
   <path id="path5457" d="m550 110a0.22 0.22 0 1 1 0.4 -0.17z"/>
   <g id="g7152">
    <path id="path5459" d="m580 87a0.22 0.22 0 1 1 0.43 -0.086z"/>
    <path id="path5461" d="m460 160a0.22 0.22 0 0 1 -0.44 0 0.22 0.22 0 1 1 0.44 0z"/>
    <path id="path5463" d="m440 130a0.22 0.22 0 0 1 -0.44 0 0.22 0.22 0 1 1 0.44 0z"/>
   </g>
  </g>
 </g>
 <use id="use5465" xlink:href="#path10535" transform="translate(363.3 -48.518)" height="580" width="600" y="0" x="0"/>
 <use id="use5467" xlink:href="#path10539" transform="translate(363.3 -48.518)" height="580" width="600" y="0" x="0"/>
 <use id="use5469" xlink:href="#path10543" transform="translate(363.3 -48.518)" height="580" width="600" y="0" x="0"/>
 <use id="use5471" xlink:href="#path10653" transform="translate(363.3 -48.518)" height="580" width="600" y="0" x="0"/>
 <g id="g7161" stroke="#FFF" stroke-miterlimit="0" fill="#FFF">
  <path id="path5473" stroke-width=".038994" d="m530 200a0.22 0.22 0 0 1 -0.01 0.44z"/>
  <path id="path5475" stroke-width=".078479" d="m200 240a0.44 0.44 0 1 1 -0.48 0.75z"/>
  <path id="path5477" stroke-width=".038994" d="m220 190a0.22 0.22 0 1 1 0.06 0.43z"/>
  <path id="path5479" stroke-width=".038994" d="m200 210a0.22 0.22 0 0 1 0.4 -0.19z"/>
 </g>
 <g id="g7167" stroke="#fff" stroke-width=".038994" stroke-miterlimit="0" fill="#fff">
  <path id="path6023" d="m157 322a0.22 0.22 0 0 1 -0.44 0 0.22 0.22 0 1 1 0.44 0z"/>
  <path id="path6025" d="m106 312a0.22 0.22 0 0 1 -0.44 0 0.22 0.22 0 1 1 0.44 0z"/>
  <path id="path6027" d="m127 292a0.22 0.22 0 0 1 -0.44 0 0.22 0.22 0 1 1 0.44 0z"/>
  <path id="path6029" d="m116 302a0.22 0.22 0 0 1 -0.44 0 0.22 0.22 0 1 1 0.44 0z"/>
  <path id="path6031" d="m95 159a0.225 0.225 0 0 1 -0.45 0 0.225 0.225 0 1 1 0.45 0z"/>
 </g>
 <use id="use6033" xlink:href="#path10539" transform="translate(-68.288 -9.0561)" height="580" width="600" y="0" x="0"/>
 <use id="use6035" xlink:href="#path10543" transform="translate(-68.288 -9.0561)" height="580" width="600" y="0" x="0"/>
 <use id="use6037" xlink:href="#path10545" transform="translate(-68.288 -9.0561)" height="580" width="600" y="0" x="0"/>
 <use id="use6039" xlink:href="#path10677" transform="translate(-74.288 -9.0561)" height="580" width="600" y="0" x="0"/>
 <g id="g7178" stroke="#fff" stroke-miterlimit="0" fill="#fff">
  <g id="g4494" stroke-width=".038994">
   <path id="path6041" d="m190 154a0.22 0.22 0 0 1 0.43 0.059z"/>
   <path id="path6043" d="m117 272a0.22023 0.22023 0 1 1 0.28 -0.34z"/>
   <path id="path6045" d="m117 242a0.22 0.22 0 0 1 0.4 -0.17z"/>
   <path id="path6047" d="m144 212a0.22 0.22 0 1 1 0.43 -0.086z"/>
  </g>
  <path id="path6049" stroke-width=".07863" d="m216 90a0.44 0.44 0 0 1 0.59 0.65z"/>
  <g id="g4501" stroke-width=".038994">
   <path id="path6051" d="m136 160a0.22 0.22 0 0 1 -0.44 0 0.22 0.22 0 1 1 0.44 0z"/>
   <path id="path6053" d="m196 190a0.22389 0.22389 0 0 1 0.39 0.22z"/>
   <path id="path6055" d="m216 170a0.22 0.22 0 1 1 0.08 -0.43z"/>
   <path id="path6057" d="m206 120a0.22 0.22 0 1 1 0.083 -0.43z"/>
  </g>
  <path id="path6059" stroke-width=".076056" d="m186 100a0.5 0.37 24 0 1 0.3 -0.67z"/>
  <path id="path6061" stroke-width=".11795" d="m109 24a0.68 0.67 19 0 1 0 -0.9 0.68 0.67 19 0 1 0 0.9z"/>
  <path id="path6063" stroke-width=".038994" d="m120 80a0.22 0.22 0 1 1 0.43 -0.086z"/>
  <path id="path6065" stroke-width=".038994" d="m256 120a0.22 0.22 0 1 1 0.06 0.43z"/>
 </g>
 <use id="use6067" xlink:href="#path10545" transform="translate(-32.288 -79.056)" height="580" width="600" y="0" x="0"/>
 <g id="g7194" stroke="#fff" stroke-miterlimit="0" fill="#fff">
  <path id="path6069" stroke-width=".038994" d="m153 172a0.22 0.22 0 0 1 0.4 -0.17z"/>
  <path id="path6071" stroke-width=".07863" d="m355.36 183.08a0.44 0.44 0 0 1 0.3111 0.82086z"/>
  <g id="g4515" stroke-width=".038994">
   <path id="path6073" d="m255.29 218.94a0.22 0.22 0 1 1 -0.40946 -0.16108 0.22 0.22 0 0 1 0.40946 0.16108z"/>
   <path id="path6075" d="m300.14 268.82a0.22389 0.22389 0 0 1 0.28238 0.34751z"/>
   <path id="path6077" d="m326.08 257.53a0.22 0.22 0 1 1 0.23186 -0.37087z"/>
   <path id="path6079" d="m335.07 207.34a0.22 0.22 0 1 1 0.23465 -0.36977z"/>
  </g>
  <path id="path6081" stroke-width=".076056" d="m323.78 181.4a0.5 0.37 45.473 0 1 0.52444 -0.51366z"/>
  <path id="path6083" stroke-width=".11795" d="m279.95 82.492a0.68 0.67 40.473 0 1 0.32946 -0.83753 0.68 0.67 40.473 0 1 -0.32946 0.83753z"/>
  <path id="path6085" stroke-width=".038994" d="m269.69 138.63a0.22 0.22 0 1 1 0.43163 0.0774z"/>
  <path id="path6087" stroke-width=".038994" d="m381.6 225.64a0.22 0.22 0 1 1 -0.10158 0.42212z"/>
 </g>
 <use id="use6089" xlink:href="#path10545" transform="matrix(.93059 .36607 -.36607 .93059 186.19 -65.132)" height="580" width="600" y="0" x="0"/>
 <g id="g7207" stroke="#fff" stroke-miterlimit="0" fill="#fff">
  <path id="path6091" stroke-width=".038994" d="m266.72 236.33a0.22 0.22 0 0 1 0.43447 -0.0118z"/>
  <path id="path6093" stroke-width=".07863" d="m113.04 148.02a0.44 0.44 0 0 1 -0.12435 0.86898z"/>
  <g id="g4529" stroke-width=".038994">
   <path id="path6095" d="m8.0974 131.04a0.22 0.22 0 0 1 -0.2806 -0.33 0.22 0.22 0 1 1 0.2806 0.33z"/>
   <path id="path6097" d="m23.258 196.39a0.22389 0.22389 0 1 1 0.0793 0.4407z"/>
   <path id="path6099" d="m51.418 199.04a0.22 0.22 0 1 1 0.38222 -0.21263z"/>
   <path id="path6101" d="m83.551 159.45a0.22 0.22 0 1 1 0.38413 -0.21032z"/>
  </g>
  <path id="path6103" stroke-width=".076056" d="m86.2 131.29a0.5 0.37 74.373 0 1 0.70737 -0.19624z"/>
  <path id="path6105" stroke-width=".11795" d="m95.626 23.509a0.68 0.67 69.373 0 1 0.69319 -0.57401 0.68 0.67 69.373 0 1 -0.69319 0.57401z"/>
  <path id="path6107" stroke-width=".038994" d="m59.51 67.698a0.22 0.22 0 1 1 0.34048 0.27636z"/>
  <path id="path6109" stroke-width=".038994" d="m115.44 197.96a0.22 0.22 0 1 1 -0.29293 0.32046z"/>
 </g>
 <use id="use6111" xlink:href="#path10545" transform="matrix(.63779 .77021 -.77021 .63779 84.889 -151.04)" height="580" width="600" y="0" x="0"/>
 <g id="g7220" stroke="#fff" stroke-width=".038994" stroke-miterlimit="0" fill="#fff">
  <path id="path6113" d="m9.6973 151.79a0.22 0.22 0 0 1 0.38607 0.19964z"/>
  <path id="path6115" d="m264 138a0.22 0.22 0 0 1 -0.0009 0.44z"/>
  <path id="path6117" d="m204 48a0.22006 0.22006 0 0 1 -0.01 0.44z"/>
  <path id="path6119" d="m174 138a0.22389 0.22389 0 0 1 0.39 0.22z"/>
  <path id="path6121" d="m194 118a0.22 0.22 0 1 1 0.08 -0.43z"/>
  <path id="path6123" d="m224 88a0.22023 0.22023 0 1 1 0.28 -0.34z"/>
  <g id="g7228">
   <path id="path6125" d="m234 58a0.22 0.22 0 1 1 0.083 -0.43z"/>
   <path id="path6127" d="m184 68a0.22 0.22 0 1 1 0.083 -0.43z"/>
   <path id="path6129" d="m204 8a0.22 0.22 0 1 1 0.083 -0.43z"/>
  </g>
  <path id="path6131" d="m214 88a0.22142 0.22142 0 1 1 0.4 -0.19z"/>
  <path id="path6133" d="m204 32a0.22 0.22 0 0 1 0.43 0.059z"/>
  <path id="path6135" d="m210 68a0.22389 0.22389 0 0 1 0.39 0.22z"/>
  <path id="path6137" d="m230 48a0.22 0.22 0 1 1 0.08 -0.43z"/>
  <path id="path6139" d="m167 50a0.22 0.22 0 0 1 0.4 -0.17z"/>
 </g>
</svg>
